<svg xmlns="http://www.w3.org/2000/svg" xmlns:xlink="http://www.w3.org/1999/xlink" xmlns:inkscape="http://www.inkscape.org/namespaces/inkscape" version="1.1" width="242" height="236" viewBox="0 0 242 236">
<defs>
<path id="font_1_1" d="M.6589966 .23046875C.6759949 .23046875 .69400027 .23046875 .69400027 .25045777 .69400027 .27046205 .6759949 .27046205 .6589966 .27046205H.117996219C.100997928 .27046205 .08299255 .27046205 .08299255 .25045777 .08299255 .23046875 .100997928 .23046875 .117996219 .23046875H.6589966Z"/>
<path id="font_2_3" d="M.2939911 .16503906V.07800293C.2939911 .041992189 .2919922 .0309906 .21798706 .0309906H.19699097V0C.23799134 .0029907227 .2899933 .0029907227 .33198548 .0029907227 .37399293 .0029907227 .4269867 .0029907227 .46798707 0V.0309906H.44699098C.37298585 .0309906 .37098695 .041992189 .37098695 .07800293V.16503906H.47099305V.19602967H.37098695V.65075686C.37098695 .67074587 .37098695 .6767578 .35499574 .6767578 .34599305 .6767578 .34298707 .6767578 .33499146 .66474917L.027999878 .19602967V.16503906H.2939911M.2999878 .19602967H.055999757L.2999878 .5688019V.19602967Z"/>
<path id="font_2_2" d="M.1269989 .07699585 .23298645 .18003845C.3889923 .31811524 .44898988 .3721466 .44898988 .47216798 .44898988 .5860901 .35899354 .6660156 .23699951 .6660156 .12399292 .6660156 .049987794 .57411196 .049987794 .48516847 .049987794 .4291687 .099990848 .4291687 .102996829 .4291687 .11999512 .4291687 .15499878 .44117738 .15499878 .48217774 .15499878 .5081787 .13699341 .5341797 .101989749 .5341797 .09399414 .5341797 .09199524 .5341797 .08898926 .5331726 .11199951 .59806826 .1659851 .63500979 .22399903 .63500979 .31498719 .63500979 .35798646 .5541382 .35798646 .47216798 .35798646 .39215089 .30799867 .31311036 .25299073 .25108338L.06098938 .036987306C.049987794 .025985718 .049987794 .023986817 .049987794 0H.42099L.44898988 .17404175H.42399598C.4189911 .14402771 .4119873 .1000061 .4019928 .084991458 .394989 .07699585 .32899476 .07699585 .30699159 .07699585H.1269989Z"/>
<path id="font_2_1" d="M.45999146 .31976319C.45999146 .39982606 .45498658 .47988893 .41999818 .5539398 .37399293 .65000918 .2919922 .6660156 .25 .6660156 .18998719 .6660156 .116989139 .64001467 .07598877 .54693606 .04399109 .47789 .038986207 .39982606 .038986207 .31976319 .038986207 .24472046 .042999269 .15464783 .083999637 .07859802 .1269989-.0024719239 .19999695-.022460938 .24899292-.022460938 .30299378-.022460938 .3789978-.0014648438 .4229889 .09359741 .45498658 .16265869 .45999146 .2407074 .45999146 .31976319M.24899292-.00047302247C.20999146-.00047302247 .15098572 .024551392 .1329956 .12062073 .12199402 .18066406 .12199402 .2727356 .12199402 .3317871 .12199402 .39582826 .12199402 .46188355 .12998963 .5159149 .14898682 .63500979 .22399903 .64401248 .24899292 .64401248 .28199769 .64401248 .34799195 .6259918 .36698915 .52693179 .3769989 .47088624 .3769989 .39482118 .3769989 .3317871 .3769989 .25672914 .3769989 .18867493 .3659973 .12461853 .35099793 .029556275 .2939911-.00047302247 .24899292-.00047302247Z"/>
<clipPath id="clip_3">
<path transform="matrix(1.00002,0,0,-1.00005,30.53331,212.0958)" d="M0 0H210.28896V210.28896H0Z"/>
</clipPath>
<path id="font_4_1" d="M.33399964 .30233766C.33999635 .32835389 .36299134 .42037965 .43299867 .42037965 .43798829 .42037965 .46199037 .42037965 .48298646 .40734864 .45498658 .402359 .43499757 .37734986 .43499757 .35334779 .43499757 .33735658 .44599916 .31835938 .47299195 .31835938 .49499513 .31835938 .5269928 .3363495 .5269928 .37635804 .5269928 .42837525 .46798707 .4423828 .43399049 .4423828 .37599183 .4423828 .34098817 .38935853 .32899476 .36634828 .3039856 .43237306 .25 .4423828 .22099304 .4423828 .116989139 .4423828 .05999756 .3133545 .05999756 .28834535 .05999756 .27833558 .069992069 .27833558 .07199097 .27833558 .07998657 .27833558 .08299255 .28033448 .084991458 .28933717 .11898804 .39535523 .18499756 .42037965 .21899414 .42037965 .23799134 .42037965 .272995 .4113617 .272995 .35334779 .272995 .32235719 .2559967 .25532533 .21899414 .11528015 .20298767 .053268434 .16799927 .011245728 .12399292 .011245728 .117996219 .011245728 .09498596 .011245728 .07398987 .024276734 .09899902 .029266358 .12098694 .05027771 .12098694 .07827759 .12098694 .105270389 .09899902 .11328125 .083999637 .11328125 .053985597 .11328125 .0289917 .08728027 .0289917 .055267335 .0289917 .009246826 .07899475-.0107421879 .12298584-.0107421879 .18899536-.0107421879 .22499085 .059280397 .22799683 .0652771 .23999024 .028274537 .27598573-.0107421879 .33599855-.0107421879 .43899537-.0107421879 .49598695 .118270877 .49598695 .14328003 .49598695 .1532898 .4869995 .1532898 .48399354 .1532898 .47499085 .1532898 .47299195 .14929199 .47099305 .14228821 .43798829 .03527832 .36999513 .011245728 .33799745 .011245728 .29899598 .011245728 .2829895 .043273927 .2829895 .07727051 .2829895 .09927368 .2889862 .121276859 .2999878 .16529846L.33399964 .30233766Z"/>
<path id="font_4_2" d="M.48599244 .38136292C.48999024 .39537049 .48999024 .39736939 .48999024 .40437318 .48999024 .42237855 .47599793 .43138124 .46099855 .43138124 .45098878 .43138124 .43499757 .42536927 .42599488 .41036988 .42399598 .405365 .41600038 .37435914 .4119873 .35635377 .40499879 .33035279 .397995 .30334474 .3919983 .27633668L.34700013 .09628296C.34298707 .08126831 .2999878 .011245728 .23399353 .011245728 .18299866 .011245728 .17199707 .055267335 .17199707 .0922699 .17199707 .1382904 .18899536 .20030213 .22299195 .28833009 .23899842 .3293457 .24299622 .3403473 .24299622 .36035157 .24299622 .405365 .21099854 .4423828 .16099549 .4423828 .06599426 .4423828 .0289917 .29733277 .0289917 .28833009 .0289917 .27833558 .038986207 .27833558 .040985109 .27833558 .050994874 .27833558 .051986696 .28033448 .056991579 .29634095 .083999637 .3903656 .12399292 .42037965 .1579895 .42037965 .1659851 .42037965 .18299866 .42037965 .18299866 .3883667 .18299866 .36335755 .17298889 .3373413 .1659851 .31834413 .12599182 .21231079 .10798645 .1552887 .10798645 .10827637 .10798645 .019256592 .17098999-.0107421879 .22999573-.0107421879 .2689972-.0107421879 .30299378 .0062561037 .33099366 .03425598 .31799317-.017745972 .30599977-.06674194 .2659912-.11973572 .23999024-.15385437 .20199585-.18309021 .1559906-.18309021 .14199829-.18309021 .09700012-.18005371 .07998657-.14074707 .09599304-.14074707 .10899353-.14074707 .12298584-.1287384 .1329956-.11973572 .14299011-.10673523 .14299011-.08773804 .14299011-.056747438 .115997318-.052734376 .10598755-.052734376 .08299255-.052734376 .049987794-.068740848 .049987794-.11773682 .049987794-.16796875 .09399414-.20507813 .1559906-.20507813 .25898744-.20507813 .3619995-.11373901 .3899994-.00074768069L.48599244 .38136292Z"/>
</defs>
<path transform="matrix(1.00002,0,0,-1.00005,30.53331,212.0958)" stroke-width=".3985" stroke-linecap="butt" stroke-miterlimit="10" stroke-linejoin="miter" fill="none" stroke="#e5e6e5" d="M21.02888 0V210.28896M63.08669 0V210.28896M105.14447 0V210.28896M147.20227 0V210.28896M189.26006 0V210.28896"/>
<path transform="matrix(1.00002,0,0,-1.00005,30.53331,212.0958)" stroke-width=".3985" stroke-linecap="butt" stroke-miterlimit="10" stroke-linejoin="miter" fill="none" stroke="#e5e6e5" d="M0 21.02888H210.28896M0 63.08669H210.28896M0 105.14447H210.28896M0 147.20227H210.28896M0 189.26006H210.28896"/>
<path transform="matrix(1.00002,0,0,-1.00005,30.53331,212.0958)" stroke-width=".19925" stroke-linecap="butt" stroke-miterlimit="10" stroke-linejoin="miter" fill="none" stroke="#7f807f" d="M21.02888 0V4.25201M63.08669 0V4.25201M105.14447 0V4.25201M147.20227 0V4.25201M189.26006 0V4.25201M21.02888 210.28896V206.03693M63.08669 210.28896V206.03693M105.14447 210.28896V206.03693M147.20227 210.28896V206.03693M189.26006 210.28896V206.03693"/>
<path transform="matrix(1.00002,0,0,-1.00005,30.53331,212.0958)" stroke-width=".19925" stroke-linecap="butt" stroke-miterlimit="10" stroke-linejoin="miter" fill="none" stroke="#7f807f" d="M0 21.02888H4.25201M0 63.08669H4.25201M0 105.14447H4.25201M0 147.20227H4.25201M0 189.26006H4.25201M210.28896 21.02888H206.03693M210.28896 63.08669H206.03693M210.28896 105.14447H206.03693M210.28896 147.20227H206.03693M210.28896 189.26006H206.03693"/>
<path transform="matrix(1.00002,0,0,-1.00005,30.53331,212.0958)" stroke-width=".3985" stroke-linecap="butt" stroke-miterlimit="10" stroke-linejoin="miter" fill="none" stroke="#000000" d="M0 0V210.28896H210.28896V0H0Z"/>
<use data-text="&#x2212;" xlink:href="#font_1_1" transform="matrix(9.962799,0,0,-9.963098,45.1976,222.03629)"/>
<use data-text="4" xlink:href="#font_2_3" transform="matrix(9.962799,0,0,-9.963098,52.946763,222.03629)"/>
<use data-text="&#x2212;" xlink:href="#font_1_1" transform="matrix(9.962799,0,0,-9.963098,87.25645,222.03629)"/>
<use data-text="2" xlink:href="#font_2_2" transform="matrix(9.962799,0,0,-9.963098,95.00561,222.03629)"/>
<use data-text="0" xlink:href="#font_2_1" transform="matrix(9.962799,0,0,-9.963098,133.18936,222.03629)"/>
<use data-text="2" xlink:href="#font_2_2" transform="matrix(9.962799,0,0,-9.963098,175.24822,222.03629)"/>
<use data-text="4" xlink:href="#font_2_3" transform="matrix(9.962799,0,0,-9.963098,217.30605,222.03629)"/>
<use data-text="&#x2212;" xlink:href="#font_1_1" transform="matrix(9.962799,0,0,-9.963098,14.2829899,193.86089)"/>
<use data-text="4" xlink:href="#font_2_3" transform="matrix(9.962799,0,0,-9.963098,22.03215,193.86089)"/>
<use data-text="&#x2212;" xlink:href="#font_1_1" transform="matrix(9.962799,0,0,-9.963098,14.2829899,151.80078)"/>
<use data-text="2" xlink:href="#font_2_2" transform="matrix(9.962799,0,0,-9.963098,22.03215,151.80078)"/>
<use data-text="0" xlink:href="#font_2_1" transform="matrix(9.962799,0,0,-9.963098,22.032135,110.15671)"/>
<use data-text="2" xlink:href="#font_2_2" transform="matrix(9.962799,0,0,-9.963098,22.032135,68.0966)"/>
<use data-text="4" xlink:href="#font_2_3" transform="matrix(9.962799,0,0,-9.963098,22.032135,26.036499)"/>
<g clip-path="url(#clip_3)">
<path transform="matrix(1.00002,0,0,-1.00005,30.53331,212.0958)" stroke-width=".3985" stroke-linecap="butt" stroke-miterlimit="10" stroke-linejoin="miter" fill="none" stroke="#0000ff" d="M21.02888 21.02888 7.67418 7.67418"/>
<path transform="matrix(-.70711418,.7071353,.70711418,.7071353,39.239465,203.38938)" d="M3.41763 0 .64348 1.04684 1.55879 0 .64348-1.04684Z" fill="#0000ff"/>
<path transform="matrix(-.70711418,.7071353,.70711418,.7071353,39.239465,203.38938)" stroke-width=".3985" stroke-linecap="butt" stroke-miterlimit="10" stroke-linejoin="miter" fill="none" stroke="#0000ff" d="M3.41763 0 .64348 1.04684 1.55879 0 .64348-1.04684Z"/>
<path transform="matrix(1.00002,0,0,-1.00005,30.53331,212.0958)" stroke-width=".3985" stroke-linecap="butt" stroke-miterlimit="10" stroke-linejoin="miter" fill="none" stroke="#0000ff" d="M21.02888 42.05779 7.9088 32.21764"/>
<path transform="matrix(-.80000606,.59999,.59997209,.80002996,39.609624,179.00104)" d="M3.41763 0 .64348 1.04684 1.55879 0 .64348-1.04684Z" fill="#0000ff"/>
<path transform="matrix(-.80000606,.59999,.59997209,.80002996,39.609624,179.00104)" stroke-width=".3985" stroke-linecap="butt" stroke-miterlimit="10" stroke-linejoin="miter" fill="none" stroke="#0000ff" d="M3.41763 0 .64348 1.04684 1.55879 0 .64348-1.04684Z"/>
<path transform="matrix(1.00002,0,0,-1.00005,30.53331,212.0958)" stroke-width=".3985" stroke-linecap="butt" stroke-miterlimit="10" stroke-linejoin="miter" fill="none" stroke="#0000ff" d="M21.02888 63.08669 8.14722 56.6458"/>
<path transform="matrix(-.8943979,.4471923,.44717894,.8944246,39.985788,154.79462)" d="M3.41763 0 .64348 1.04684 1.55879 0 .64348-1.04684Z" fill="#0000ff"/>
<path transform="matrix(-.8943979,.4471923,.44717894,.8944246,39.985788,154.79462)" stroke-width=".3985" stroke-linecap="butt" stroke-miterlimit="10" stroke-linejoin="miter" fill="none" stroke="#0000ff" d="M3.41763 0 .64348 1.04684 1.55879 0 .64348-1.04684Z"/>
<path transform="matrix(1.00002,0,0,-1.00005,30.53331,212.0958)" stroke-width=".3985" stroke-linecap="butt" stroke-miterlimit="10" stroke-linejoin="miter" fill="none" stroke="#0000ff" d="M21.02888 84.11559 8.33858 80.9429"/>
<path transform="matrix(-.9701594,.24251212,.24250487,.97018846,40.287706,130.795)" d="M3.41763 0 .64348 1.04684 1.55879 0 .64348-1.04684Z" fill="#0000ff"/>
<path transform="matrix(-.9701594,.24251212,.24250487,.97018846,40.287706,130.795)" stroke-width=".3985" stroke-linecap="butt" stroke-miterlimit="10" stroke-linejoin="miter" fill="none" stroke="#0000ff" d="M3.41763 0 .64348 1.04684 1.55879 0 .64348-1.04684Z"/>
<path transform="matrix(1.00002,0,0,-1.00005,30.53331,212.0958)" stroke-width=".3985" stroke-linecap="butt" stroke-miterlimit="10" stroke-linejoin="miter" fill="none" stroke="#0000ff" d="M21.02888 105.14447H8.41402"/>
<path transform="matrix(-1.00002,-0,0,1.00005,40.40669,106.946079)" d="M3.41763 0 .64348 1.04684 1.55879 0 .64348-1.04684Z" fill="#0000ff"/>
<path transform="matrix(-1.00002,-0,0,1.00005,40.40669,106.946079)" stroke-width=".3985" stroke-linecap="butt" stroke-miterlimit="10" stroke-linejoin="miter" fill="none" stroke="#0000ff" d="M3.41763 0 .64348 1.04684 1.55879 0 .64348-1.04684Z"/>
<path transform="matrix(1.00002,0,0,-1.00005,30.53331,212.0958)" stroke-width=".3985" stroke-linecap="butt" stroke-miterlimit="10" stroke-linejoin="miter" fill="none" stroke="#0000ff" d="M21.02888 126.17337 8.33858 129.34606"/>
<path transform="matrix(-.9701594,-.24251212,-.24250487,.97018846,40.287706,83.09714)" d="M3.41763 0 .64348 1.04684 1.55879 0 .64348-1.04684Z" fill="#0000ff"/>
<path transform="matrix(-.9701594,-.24251212,-.24250487,.97018846,40.287706,83.09714)" stroke-width=".3985" stroke-linecap="butt" stroke-miterlimit="10" stroke-linejoin="miter" fill="none" stroke="#0000ff" d="M3.41763 0 .64348 1.04684 1.55879 0 .64348-1.04684Z"/>
<path transform="matrix(1.00002,0,0,-1.00005,30.53331,212.0958)" stroke-width=".3985" stroke-linecap="butt" stroke-miterlimit="10" stroke-linejoin="miter" fill="none" stroke="#0000ff" d="M21.02888 147.20227 8.14722 153.64315"/>
<path transform="matrix(-.8943979,-.4471923,-.44717894,.8944246,39.985788,59.09752)" d="M3.41763 0 .64348 1.04684 1.55879 0 .64348-1.04684Z" fill="#0000ff"/>
<path transform="matrix(-.8943979,-.4471923,-.44717894,.8944246,39.985788,59.09752)" stroke-width=".3985" stroke-linecap="butt" stroke-miterlimit="10" stroke-linejoin="miter" fill="none" stroke="#0000ff" d="M3.41763 0 .64348 1.04684 1.55879 0 .64348-1.04684Z"/>
<path transform="matrix(1.00002,0,0,-1.00005,30.53331,212.0958)" stroke-width=".3985" stroke-linecap="butt" stroke-miterlimit="10" stroke-linejoin="miter" fill="none" stroke="#0000ff" d="M21.02888 168.23117 7.9088 178.07132"/>
<path transform="matrix(-.80000606,-.59999,-.59997209,.80002996,39.609624,34.891084)" d="M3.41763 0 .64348 1.04684 1.55879 0 .64348-1.04684Z" fill="#0000ff"/>
<path transform="matrix(-.80000606,-.59999,-.59997209,.80002996,39.609624,34.891084)" stroke-width=".3985" stroke-linecap="butt" stroke-miterlimit="10" stroke-linejoin="miter" fill="none" stroke="#0000ff" d="M3.41763 0 .64348 1.04684 1.55879 0 .64348-1.04684Z"/>
<path transform="matrix(1.00002,0,0,-1.00005,30.53331,212.0958)" stroke-width=".3985" stroke-linecap="butt" stroke-miterlimit="10" stroke-linejoin="miter" fill="none" stroke="#0000ff" d="M21.02888 189.26006 7.67418 202.61478"/>
<path transform="matrix(-.70711418,-.7071353,-.70711418,.7071353,39.239465,10.502762)" d="M3.41763 0 .64348 1.04684 1.55879 0 .64348-1.04684Z" fill="#0000ff"/>
<path transform="matrix(-.70711418,-.7071353,-.70711418,.7071353,39.239465,10.502762)" stroke-width=".3985" stroke-linecap="butt" stroke-miterlimit="10" stroke-linejoin="miter" fill="none" stroke="#0000ff" d="M3.41763 0 .64348 1.04684 1.55879 0 .64348-1.04684Z"/>
<path transform="matrix(1.00002,0,0,-1.00005,30.53331,212.0958)" stroke-width=".3985" stroke-linecap="butt" stroke-miterlimit="10" stroke-linejoin="miter" fill="none" stroke="#0000ff" d="M42.05779 21.02888 32.21764 7.9088"/>
<path transform="matrix(-.59997209,.80002996,.80000606,.59999,63.627077,203.01921)" d="M3.41763 0 .64348 1.04684 1.55879 0 .64348-1.04684Z" fill="#0000ff"/>
<path transform="matrix(-.59997209,.80002996,.80000606,.59999,63.627077,203.01921)" stroke-width=".3985" stroke-linecap="butt" stroke-miterlimit="10" stroke-linejoin="miter" fill="none" stroke="#0000ff" d="M3.41763 0 .64348 1.04684 1.55879 0 .64348-1.04684Z"/>
<path transform="matrix(1.00002,0,0,-1.00005,30.53331,212.0958)" stroke-width=".3985" stroke-linecap="butt" stroke-miterlimit="10" stroke-linejoin="miter" fill="none" stroke="#0000ff" d="M42.05779 42.05779 32.48828 32.48828"/>
<path transform="matrix(-.70711418,.7071353,.70711418,.7071353,64.05406,178.57404)" d="M3.41763 0 .64348 1.04684 1.55879 0 .64348-1.04684Z" fill="#0000ff"/>
<path transform="matrix(-.70711418,.7071353,.70711418,.7071353,64.05406,178.57404)" stroke-width=".3985" stroke-linecap="butt" stroke-miterlimit="10" stroke-linejoin="miter" fill="none" stroke="#0000ff" d="M3.41763 0 .64348 1.04684 1.55879 0 .64348-1.04684Z"/>
<path transform="matrix(1.00002,0,0,-1.00005,30.53331,212.0958)" stroke-width=".3985" stroke-linecap="butt" stroke-miterlimit="10" stroke-linejoin="miter" fill="none" stroke="#0000ff" d="M42.05779 63.08669 32.80379 56.9173"/>
<path transform="matrix(-.8320367,.55468776,.5546711,.8320615,64.55184,154.36626)" d="M3.41763 0 .64348 1.04684 1.55879 0 .64348-1.04684Z" fill="#0000ff"/>
<path transform="matrix(-.8320367,.55468776,.5546711,.8320615,64.55184,154.36626)" stroke-width=".3985" stroke-linecap="butt" stroke-miterlimit="10" stroke-linejoin="miter" fill="none" stroke="#0000ff" d="M3.41763 0 .64348 1.04684 1.55879 0 .64348-1.04684Z"/>
<path transform="matrix(1.00002,0,0,-1.00005,30.53331,212.0958)" stroke-width=".3985" stroke-linecap="butt" stroke-miterlimit="10" stroke-linejoin="miter" fill="none" stroke="#0000ff" d="M42.05779 84.11559 33.09836 81.12909"/>
<path transform="matrix(-.948659,.3162258,.31621633,.9486874,65.0166,130.50122)" d="M3.41763 0 .64348 1.04684 1.55879 0 .64348-1.04684Z" fill="#0000ff"/>
<path transform="matrix(-.948659,.3162258,.31621633,.9486874,65.0166,130.50122)" stroke-width=".3985" stroke-linecap="butt" stroke-miterlimit="10" stroke-linejoin="miter" fill="none" stroke="#0000ff" d="M3.41763 0 .64348 1.04684 1.55879 0 .64348-1.04684Z"/>
<path transform="matrix(1.00002,0,0,-1.00005,30.53331,212.0958)" stroke-width=".3985" stroke-linecap="butt" stroke-miterlimit="10" stroke-linejoin="miter" fill="none" stroke="#0000ff" d="M42.05779 105.14447H33.22812"/>
<path transform="matrix(-1.00002,-0,0,1.00005,65.2213,106.946079)" d="M3.41763 0 .64348 1.04684 1.55879 0 .64348-1.04684Z" fill="#0000ff"/>
<path transform="matrix(-1.00002,-0,0,1.00005,65.2213,106.946079)" stroke-width=".3985" stroke-linecap="butt" stroke-miterlimit="10" stroke-linejoin="miter" fill="none" stroke="#0000ff" d="M3.41763 0 .64348 1.04684 1.55879 0 .64348-1.04684Z"/>
<path transform="matrix(1.00002,0,0,-1.00005,30.53331,212.0958)" stroke-width=".3985" stroke-linecap="butt" stroke-miterlimit="10" stroke-linejoin="miter" fill="none" stroke="#0000ff" d="M42.05779 126.17337 33.09836 129.15987"/>
<path transform="matrix(-.948659,-.3162258,-.31621633,.9486874,65.0166,83.390918)" d="M3.41763 0 .64348 1.04684 1.55879 0 .64348-1.04684Z" fill="#0000ff"/>
<path transform="matrix(-.948659,-.3162258,-.31621633,.9486874,65.0166,83.390918)" stroke-width=".3985" stroke-linecap="butt" stroke-miterlimit="10" stroke-linejoin="miter" fill="none" stroke="#0000ff" d="M3.41763 0 .64348 1.04684 1.55879 0 .64348-1.04684Z"/>
<path transform="matrix(1.00002,0,0,-1.00005,30.53331,212.0958)" stroke-width=".3985" stroke-linecap="butt" stroke-miterlimit="10" stroke-linejoin="miter" fill="none" stroke="#0000ff" d="M42.05779 147.20227 32.80379 153.37166"/>
<path transform="matrix(-.8320367,-.55468776,-.5546711,.8320615,64.55184,59.52588)" d="M3.41763 0 .64348 1.04684 1.55879 0 .64348-1.04684Z" fill="#0000ff"/>
<path transform="matrix(-.8320367,-.55468776,-.5546711,.8320615,64.55184,59.52588)" stroke-width=".3985" stroke-linecap="butt" stroke-miterlimit="10" stroke-linejoin="miter" fill="none" stroke="#0000ff" d="M3.41763 0 .64348 1.04684 1.55879 0 .64348-1.04684Z"/>
<path transform="matrix(1.00002,0,0,-1.00005,30.53331,212.0958)" stroke-width=".3985" stroke-linecap="butt" stroke-miterlimit="10" stroke-linejoin="miter" fill="none" stroke="#0000ff" d="M42.05779 168.23117 32.48828 177.80068"/>
<path transform="matrix(-.70711418,-.7071353,-.70711418,.7071353,64.05406,35.318086)" d="M3.41763 0 .64348 1.04684 1.55879 0 .64348-1.04684Z" fill="#0000ff"/>
<path transform="matrix(-.70711418,-.7071353,-.70711418,.7071353,64.05406,35.318086)" stroke-width=".3985" stroke-linecap="butt" stroke-miterlimit="10" stroke-linejoin="miter" fill="none" stroke="#0000ff" d="M3.41763 0 .64348 1.04684 1.55879 0 .64348-1.04684Z"/>
<path transform="matrix(1.00002,0,0,-1.00005,30.53331,212.0958)" stroke-width=".3985" stroke-linecap="butt" stroke-miterlimit="10" stroke-linejoin="miter" fill="none" stroke="#0000ff" d="M42.05779 189.26006 32.21764 202.38016"/>
<path transform="matrix(-.59997209,-.80002996,-.80000606,.59999,63.627077,10.87291)" d="M3.41763 0 .64348 1.04684 1.55879 0 .64348-1.04684Z" fill="#0000ff"/>
<path transform="matrix(-.59997209,-.80002996,-.80000606,.59999,63.627077,10.87291)" stroke-width=".3985" stroke-linecap="butt" stroke-miterlimit="10" stroke-linejoin="miter" fill="none" stroke="#0000ff" d="M3.41763 0 .64348 1.04684 1.55879 0 .64348-1.04684Z"/>
<path transform="matrix(1.00002,0,0,-1.00005,30.53331,212.0958)" stroke-width=".3985" stroke-linecap="butt" stroke-miterlimit="10" stroke-linejoin="miter" fill="none" stroke="#0000ff" d="M63.08669 21.02888 56.6458 8.14722"/>
<path transform="matrix(-.44717894,.8944246,.8943979,.4471923,87.83276,202.64304)" d="M3.41763 0 .64348 1.04684 1.55879 0 .64348-1.04684Z" fill="#0000ff"/>
<path transform="matrix(-.44717894,.8944246,.8943979,.4471923,87.83276,202.64304)" stroke-width=".3985" stroke-linecap="butt" stroke-miterlimit="10" stroke-linejoin="miter" fill="none" stroke="#0000ff" d="M3.41763 0 .64348 1.04684 1.55879 0 .64348-1.04684Z"/>
<path transform="matrix(1.00002,0,0,-1.00005,30.53331,212.0958)" stroke-width=".3985" stroke-linecap="butt" stroke-miterlimit="10" stroke-linejoin="miter" fill="none" stroke="#0000ff" d="M63.08669 42.05779 56.9173 32.80379"/>
<path transform="matrix(-.5546711,.8320615,.8320367,.55468776,88.261119,178.07625)" d="M3.41763 0 .64348 1.04684 1.55879 0 .64348-1.04684Z" fill="#0000ff"/>
<path transform="matrix(-.5546711,.8320615,.8320367,.55468776,88.261119,178.07625)" stroke-width=".3985" stroke-linecap="butt" stroke-miterlimit="10" stroke-linejoin="miter" fill="none" stroke="#0000ff" d="M3.41763 0 .64348 1.04684 1.55879 0 .64348-1.04684Z"/>
<path transform="matrix(1.00002,0,0,-1.00005,30.53331,212.0958)" stroke-width=".3985" stroke-linecap="butt" stroke-miterlimit="10" stroke-linejoin="miter" fill="none" stroke="#0000ff" d="M63.08669 63.08669 57.30237 57.30237"/>
<path transform="matrix(-.70711418,.7071353,.70711418,.7071353,88.86865,153.7587)" d="M3.41763 0 .64348 1.04684 1.55879 0 .64348-1.04684Z" fill="#0000ff"/>
<path transform="matrix(-.70711418,.7071353,.70711418,.7071353,88.86865,153.7587)" stroke-width=".3985" stroke-linecap="butt" stroke-miterlimit="10" stroke-linejoin="miter" fill="none" stroke="#0000ff" d="M3.41763 0 .64348 1.04684 1.55879 0 .64348-1.04684Z"/>
<path transform="matrix(1.00002,0,0,-1.00005,30.53331,212.0958)" stroke-width=".3985" stroke-linecap="butt" stroke-miterlimit="10" stroke-linejoin="miter" fill="none" stroke="#0000ff" d="M63.08669 84.11559 57.77542 81.4599"/>
<path transform="matrix(-.8943979,.4471923,.44717894,.8944246,89.61496,129.97928)" d="M3.41763 0 .64348 1.04684 1.55879 0 .64348-1.04684Z" fill="#0000ff"/>
<path transform="matrix(-.8943979,.4471923,.44717894,.8944246,89.61496,129.97928)" stroke-width=".3985" stroke-linecap="butt" stroke-miterlimit="10" stroke-linejoin="miter" fill="none" stroke="#0000ff" d="M3.41763 0 .64348 1.04684 1.55879 0 .64348-1.04684Z"/>
<path transform="matrix(1.00002,0,0,-1.00005,30.53331,212.0958)" stroke-width=".3985" stroke-linecap="butt" stroke-miterlimit="10" stroke-linejoin="miter" fill="none" stroke="#0000ff" d="M63.08669 105.14447H58.0422"/>
<path transform="matrix(-1.00002,-0,0,1.00005,90.03589,106.946079)" d="M3.41763 0 .64348 1.04684 1.55879 0 .64348-1.04684Z" fill="#0000ff"/>
<path transform="matrix(-1.00002,-0,0,1.00005,90.03589,106.946079)" stroke-width=".3985" stroke-linecap="butt" stroke-miterlimit="10" stroke-linejoin="miter" fill="none" stroke="#0000ff" d="M3.41763 0 .64348 1.04684 1.55879 0 .64348-1.04684Z"/>
<path transform="matrix(1.00002,0,0,-1.00005,30.53331,212.0958)" stroke-width=".3985" stroke-linecap="butt" stroke-miterlimit="10" stroke-linejoin="miter" fill="none" stroke="#0000ff" d="M63.08669 126.17337 57.77542 128.82906"/>
<path transform="matrix(-.8943979,-.4471923,-.44717894,.8944246,89.61496,83.91284)" d="M3.41763 0 .64348 1.04684 1.55879 0 .64348-1.04684Z" fill="#0000ff"/>
<path transform="matrix(-.8943979,-.4471923,-.44717894,.8944246,89.61496,83.91284)" stroke-width=".3985" stroke-linecap="butt" stroke-miterlimit="10" stroke-linejoin="miter" fill="none" stroke="#0000ff" d="M3.41763 0 .64348 1.04684 1.55879 0 .64348-1.04684Z"/>
<path transform="matrix(1.00002,0,0,-1.00005,30.53331,212.0958)" stroke-width=".3985" stroke-linecap="butt" stroke-miterlimit="10" stroke-linejoin="miter" fill="none" stroke="#0000ff" d="M63.08669 147.20227 57.30237 152.98657"/>
<path transform="matrix(-.70711418,-.7071353,-.70711418,.7071353,88.86865,60.13344)" d="M3.41763 0 .64348 1.04684 1.55879 0 .64348-1.04684Z" fill="#0000ff"/>
<path transform="matrix(-.70711418,-.7071353,-.70711418,.7071353,88.86865,60.13344)" stroke-width=".3985" stroke-linecap="butt" stroke-miterlimit="10" stroke-linejoin="miter" fill="none" stroke="#0000ff" d="M3.41763 0 .64348 1.04684 1.55879 0 .64348-1.04684Z"/>
<path transform="matrix(1.00002,0,0,-1.00005,30.53331,212.0958)" stroke-width=".3985" stroke-linecap="butt" stroke-miterlimit="10" stroke-linejoin="miter" fill="none" stroke="#0000ff" d="M63.08669 168.23117 56.9173 177.48516"/>
<path transform="matrix(-.5546711,-.8320615,-.8320367,.55468776,88.261119,35.815889)" d="M3.41763 0 .64348 1.04684 1.55879 0 .64348-1.04684Z" fill="#0000ff"/>
<path transform="matrix(-.5546711,-.8320615,-.8320367,.55468776,88.261119,35.815889)" stroke-width=".3985" stroke-linecap="butt" stroke-miterlimit="10" stroke-linejoin="miter" fill="none" stroke="#0000ff" d="M3.41763 0 .64348 1.04684 1.55879 0 .64348-1.04684Z"/>
<path transform="matrix(1.00002,0,0,-1.00005,30.53331,212.0958)" stroke-width=".3985" stroke-linecap="butt" stroke-miterlimit="10" stroke-linejoin="miter" fill="none" stroke="#0000ff" d="M63.08669 189.26006 56.6458 202.14174"/>
<path transform="matrix(-.44717894,-.8944246,-.8943979,.4471923,87.83276,11.2491)" d="M3.41763 0 .64348 1.04684 1.55879 0 .64348-1.04684Z" fill="#0000ff"/>
<path transform="matrix(-.44717894,-.8944246,-.8943979,.4471923,87.83276,11.2491)" stroke-width=".3985" stroke-linecap="butt" stroke-miterlimit="10" stroke-linejoin="miter" fill="none" stroke="#0000ff" d="M3.41763 0 .64348 1.04684 1.55879 0 .64348-1.04684Z"/>
<path transform="matrix(1.00002,0,0,-1.00005,30.53331,212.0958)" stroke-width=".3985" stroke-linecap="butt" stroke-miterlimit="10" stroke-linejoin="miter" fill="none" stroke="#0000ff" d="M84.11559 21.02888 80.9429 8.33858"/>
<path transform="matrix(-.24250487,.97018846,.9701594,.24251212,111.83167,202.34111)" d="M3.41763 0 .64348 1.04684 1.55879 0 .64348-1.04684Z" fill="#0000ff"/>
<path transform="matrix(-.24250487,.97018846,.9701594,.24251212,111.83167,202.34111)" stroke-width=".3985" stroke-linecap="butt" stroke-miterlimit="10" stroke-linejoin="miter" fill="none" stroke="#0000ff" d="M3.41763 0 .64348 1.04684 1.55879 0 .64348-1.04684Z"/>
<path transform="matrix(1.00002,0,0,-1.00005,30.53331,212.0958)" stroke-width=".3985" stroke-linecap="butt" stroke-miterlimit="10" stroke-linejoin="miter" fill="none" stroke="#0000ff" d="M84.11559 42.05779 81.12909 33.09836"/>
<path transform="matrix(-.31621633,.9486874,.948659,.3162258,112.12544,177.61147)" d="M3.41763 0 .64348 1.04684 1.55879 0 .64348-1.04684Z" fill="#0000ff"/>
<path transform="matrix(-.31621633,.9486874,.948659,.3162258,112.12544,177.61147)" stroke-width=".3985" stroke-linecap="butt" stroke-miterlimit="10" stroke-linejoin="miter" fill="none" stroke="#0000ff" d="M3.41763 0 .64348 1.04684 1.55879 0 .64348-1.04684Z"/>
<path transform="matrix(1.00002,0,0,-1.00005,30.53331,212.0958)" stroke-width=".3985" stroke-linecap="butt" stroke-miterlimit="10" stroke-linejoin="miter" fill="none" stroke="#0000ff" d="M84.11559 63.08669 81.4599 57.77542"/>
<path transform="matrix(-.44717894,.8944246,.8943979,.4471923,112.64737,153.01238)" d="M3.41763 0 .64348 1.04684 1.55879 0 .64348-1.04684Z" fill="#0000ff"/>
<path transform="matrix(-.44717894,.8944246,.8943979,.4471923,112.64737,153.01238)" stroke-width=".3985" stroke-linecap="butt" stroke-miterlimit="10" stroke-linejoin="miter" fill="none" stroke="#0000ff" d="M3.41763 0 .64348 1.04684 1.55879 0 .64348-1.04684Z"/>
<path transform="matrix(1.00002,0,0,-1.00005,30.53331,212.0958)" stroke-width=".3985" stroke-linecap="butt" stroke-miterlimit="10" stroke-linejoin="miter" fill="none" stroke="#0000ff" d="M84.11559 84.11559 82.11647 82.11647"/>
<path transform="matrix(-.70711418,.7071353,.70711418,.7071353,113.68325,128.94336)" d="M3.41763 0 .64348 1.04684 1.55879 0 .64348-1.04684Z" fill="#0000ff"/>
<path transform="matrix(-.70711418,.7071353,.70711418,.7071353,113.68325,128.94336)" stroke-width=".3985" stroke-linecap="butt" stroke-miterlimit="10" stroke-linejoin="miter" fill="none" stroke="#0000ff" d="M3.41763 0 .64348 1.04684 1.55879 0 .64348-1.04684Z"/>
<path transform="matrix(1.00002,0,0,-1.00005,30.53331,212.0958)" stroke-width=".3985" stroke-linecap="butt" stroke-miterlimit="10" stroke-linejoin="miter" fill="none" stroke="#0000ff" d="M84.11559 105.14447H82.85631"/>
<path transform="matrix(-1.00002,-0,0,1.00005,114.85049,106.946079)" d="M3.41763 0 .64348 1.04684 1.55879 0 .64348-1.04684Z" fill="#0000ff"/>
<path transform="matrix(-1.00002,-0,0,1.00005,114.85049,106.946079)" stroke-width=".3985" stroke-linecap="butt" stroke-miterlimit="10" stroke-linejoin="miter" fill="none" stroke="#0000ff" d="M3.41763 0 .64348 1.04684 1.55879 0 .64348-1.04684Z"/>
<path transform="matrix(1.00002,0,0,-1.00005,30.53331,212.0958)" stroke-width=".3985" stroke-linecap="butt" stroke-miterlimit="10" stroke-linejoin="miter" fill="none" stroke="#0000ff" d="M84.11559 126.17337 82.11647 128.17249"/>
<path transform="matrix(-.70711418,-.7071353,-.70711418,.7071353,113.68325,84.94878)" d="M3.41763 0 .64348 1.04684 1.55879 0 .64348-1.04684Z" fill="#0000ff"/>
<path transform="matrix(-.70711418,-.7071353,-.70711418,.7071353,113.68325,84.94878)" stroke-width=".3985" stroke-linecap="butt" stroke-miterlimit="10" stroke-linejoin="miter" fill="none" stroke="#0000ff" d="M3.41763 0 .64348 1.04684 1.55879 0 .64348-1.04684Z"/>
<path transform="matrix(1.00002,0,0,-1.00005,30.53331,212.0958)" stroke-width=".3985" stroke-linecap="butt" stroke-miterlimit="10" stroke-linejoin="miter" fill="none" stroke="#0000ff" d="M84.11559 147.20227 81.4599 152.51354"/>
<path transform="matrix(-.44717894,-.8944246,-.8943979,.4471923,112.64737,60.87976)" d="M3.41763 0 .64348 1.04684 1.55879 0 .64348-1.04684Z" fill="#0000ff"/>
<path transform="matrix(-.44717894,-.8944246,-.8943979,.4471923,112.64737,60.87976)" stroke-width=".3985" stroke-linecap="butt" stroke-miterlimit="10" stroke-linejoin="miter" fill="none" stroke="#0000ff" d="M3.41763 0 .64348 1.04684 1.55879 0 .64348-1.04684Z"/>
<path transform="matrix(1.00002,0,0,-1.00005,30.53331,212.0958)" stroke-width=".3985" stroke-linecap="butt" stroke-miterlimit="10" stroke-linejoin="miter" fill="none" stroke="#0000ff" d="M84.11559 168.23117 81.12909 177.19058"/>
<path transform="matrix(-.31621633,-.9486874,-.948659,.3162258,112.12544,36.280687)" d="M3.41763 0 .64348 1.04684 1.55879 0 .64348-1.04684Z" fill="#0000ff"/>
<path transform="matrix(-.31621633,-.9486874,-.948659,.3162258,112.12544,36.280687)" stroke-width=".3985" stroke-linecap="butt" stroke-miterlimit="10" stroke-linejoin="miter" fill="none" stroke="#0000ff" d="M3.41763 0 .64348 1.04684 1.55879 0 .64348-1.04684Z"/>
<path transform="matrix(1.00002,0,0,-1.00005,30.53331,212.0958)" stroke-width=".3985" stroke-linecap="butt" stroke-miterlimit="10" stroke-linejoin="miter" fill="none" stroke="#0000ff" d="M84.11559 189.26006 80.9429 201.95037"/>
<path transform="matrix(-.24250487,-.97018846,-.9701594,.24251212,111.83167,11.551025)" d="M3.41763 0 .64348 1.04684 1.55879 0 .64348-1.04684Z" fill="#0000ff"/>
<path transform="matrix(-.24250487,-.97018846,-.9701594,.24251212,111.83167,11.551025)" stroke-width=".3985" stroke-linecap="butt" stroke-miterlimit="10" stroke-linejoin="miter" fill="none" stroke="#0000ff" d="M3.41763 0 .64348 1.04684 1.55879 0 .64348-1.04684Z"/>
<path transform="matrix(1.00002,0,0,-1.00005,30.53331,212.0958)" stroke-width=".3985" stroke-linecap="butt" stroke-miterlimit="10" stroke-linejoin="miter" fill="none" stroke="#0000ff" d="M105.14447 21.02888V8.41402"/>
<path transform="matrix(0,1.00005,1.00002,0,135.67989,202.22212)" d="M3.41763 0 .64348 1.04684 1.55879 0 .64348-1.04684Z" fill="#0000ff"/>
<path transform="matrix(0,1.00005,1.00002,0,135.67989,202.22212)" stroke-width=".3985" stroke-linecap="butt" stroke-miterlimit="10" stroke-linejoin="miter" fill="none" stroke="#0000ff" d="M3.41763 0 .64348 1.04684 1.55879 0 .64348-1.04684Z"/>
<path transform="matrix(1.00002,0,0,-1.00005,30.53331,212.0958)" stroke-width=".3985" stroke-linecap="butt" stroke-miterlimit="10" stroke-linejoin="miter" fill="none" stroke="#0000ff" d="M105.14447 42.05779V33.22812"/>
<path transform="matrix(0,1.00005,1.00002,0,135.67989,177.40677)" d="M3.41763 0 .64348 1.04684 1.55879 0 .64348-1.04684Z" fill="#0000ff"/>
<path transform="matrix(0,1.00005,1.00002,0,135.67989,177.40677)" stroke-width=".3985" stroke-linecap="butt" stroke-miterlimit="10" stroke-linejoin="miter" fill="none" stroke="#0000ff" d="M3.41763 0 .64348 1.04684 1.55879 0 .64348-1.04684Z"/>
<path transform="matrix(1.00002,0,0,-1.00005,30.53331,212.0958)" stroke-width=".3985" stroke-linecap="butt" stroke-miterlimit="10" stroke-linejoin="miter" fill="none" stroke="#0000ff" d="M105.14447 63.08669V58.0422"/>
<path transform="matrix(0,1.00005,1.00002,0,135.67989,152.59143)" d="M3.41763 0 .64348 1.04684 1.55879 0 .64348-1.04684Z" fill="#0000ff"/>
<path transform="matrix(0,1.00005,1.00002,0,135.67989,152.59143)" stroke-width=".3985" stroke-linecap="butt" stroke-miterlimit="10" stroke-linejoin="miter" fill="none" stroke="#0000ff" d="M3.41763 0 .64348 1.04684 1.55879 0 .64348-1.04684Z"/>
<path transform="matrix(1.00002,0,0,-1.00005,30.53331,212.0958)" stroke-width=".3985" stroke-linecap="butt" stroke-miterlimit="10" stroke-linejoin="miter" fill="none" stroke="#0000ff" d="M105.14447 84.11559V82.85631"/>
<path transform="matrix(0,1.00005,1.00002,0,135.67989,127.77609)" d="M3.41763 0 .64348 1.04684 1.55879 0 .64348-1.04684Z" fill="#0000ff"/>
<path transform="matrix(0,1.00005,1.00002,0,135.67989,127.77609)" stroke-width=".3985" stroke-linecap="butt" stroke-miterlimit="10" stroke-linejoin="miter" fill="none" stroke="#0000ff" d="M3.41763 0 .64348 1.04684 1.55879 0 .64348-1.04684Z"/>
<path transform="matrix(1.00002,0,0,-1.00005,30.53331,212.0958)" stroke-width=".3985" stroke-linecap="butt" stroke-miterlimit="10" stroke-linejoin="miter" fill="none" stroke="#0000ff" d="M105.14447 105.14447V107.67041"/>
<path transform="matrix(0,-1.00005,-1.00002,-0,135.67989,110.93138)" d="M3.41763 0 .64348 1.04684 1.55879 0 .64348-1.04684Z" fill="#0000ff"/>
<path transform="matrix(0,-1.00005,-1.00002,-0,135.67989,110.93138)" stroke-width=".3985" stroke-linecap="butt" stroke-miterlimit="10" stroke-linejoin="miter" fill="none" stroke="#0000ff" d="M3.41763 0 .64348 1.04684 1.55879 0 .64348-1.04684Z"/>
<path transform="matrix(1.00002,0,0,-1.00005,30.53331,212.0958)" stroke-width=".3985" stroke-linecap="butt" stroke-miterlimit="10" stroke-linejoin="miter" fill="none" stroke="#0000ff" d="M105.14447 126.17337V127.43265"/>
<path transform="matrix(0,-1.00005,-1.00002,-0,135.67989,86.11604)" d="M3.41763 0 .64348 1.04684 1.55879 0 .64348-1.04684Z" fill="#0000ff"/>
<path transform="matrix(0,-1.00005,-1.00002,-0,135.67989,86.11604)" stroke-width=".3985" stroke-linecap="butt" stroke-miterlimit="10" stroke-linejoin="miter" fill="none" stroke="#0000ff" d="M3.41763 0 .64348 1.04684 1.55879 0 .64348-1.04684Z"/>
<path transform="matrix(1.00002,0,0,-1.00005,30.53331,212.0958)" stroke-width=".3985" stroke-linecap="butt" stroke-miterlimit="10" stroke-linejoin="miter" fill="none" stroke="#0000ff" d="M105.14447 147.20227V152.24674"/>
<path transform="matrix(0,-1.00005,-1.00002,-0,135.67989,61.30069)" d="M3.41763 0 .64348 1.04684 1.55879 0 .64348-1.04684Z" fill="#0000ff"/>
<path transform="matrix(0,-1.00005,-1.00002,-0,135.67989,61.30069)" stroke-width=".3985" stroke-linecap="butt" stroke-miterlimit="10" stroke-linejoin="miter" fill="none" stroke="#0000ff" d="M3.41763 0 .64348 1.04684 1.55879 0 .64348-1.04684Z"/>
<path transform="matrix(1.00002,0,0,-1.00005,30.53331,212.0958)" stroke-width=".3985" stroke-linecap="butt" stroke-miterlimit="10" stroke-linejoin="miter" fill="none" stroke="#0000ff" d="M105.14447 168.23117V177.06084"/>
<path transform="matrix(0,-1.00005,-1.00002,-0,135.67989,36.48535)" d="M3.41763 0 .64348 1.04684 1.55879 0 .64348-1.04684Z" fill="#0000ff"/>
<path transform="matrix(0,-1.00005,-1.00002,-0,135.67989,36.48535)" stroke-width=".3985" stroke-linecap="butt" stroke-miterlimit="10" stroke-linejoin="miter" fill="none" stroke="#0000ff" d="M3.41763 0 .64348 1.04684 1.55879 0 .64348-1.04684Z"/>
<path transform="matrix(1.00002,0,0,-1.00005,30.53331,212.0958)" stroke-width=".3985" stroke-linecap="butt" stroke-miterlimit="10" stroke-linejoin="miter" fill="none" stroke="#0000ff" d="M105.14447 189.26006V201.87494"/>
<path transform="matrix(0,-1.00005,-1.00002,-0,135.67989,11.670029)" d="M3.41763 0 .64348 1.04684 1.55879 0 .64348-1.04684Z" fill="#0000ff"/>
<path transform="matrix(0,-1.00005,-1.00002,-0,135.67989,11.670029)" stroke-width=".3985" stroke-linecap="butt" stroke-miterlimit="10" stroke-linejoin="miter" fill="none" stroke="#0000ff" d="M3.41763 0 .64348 1.04684 1.55879 0 .64348-1.04684Z"/>
<path transform="matrix(1.00002,0,0,-1.00005,30.53331,212.0958)" stroke-width=".3985" stroke-linecap="butt" stroke-miterlimit="10" stroke-linejoin="miter" fill="none" stroke="#0000ff" d="M126.17337 21.02888 129.34606 8.33858"/>
<path transform="matrix(.24250487,.97018846,.9701594,-.24251212,159.5281,202.34111)" d="M3.41763 0 .64348 1.04684 1.55879 0 .64348-1.04684Z" fill="#0000ff"/>
<path transform="matrix(.24250487,.97018846,.9701594,-.24251212,159.5281,202.34111)" stroke-width=".3985" stroke-linecap="butt" stroke-miterlimit="10" stroke-linejoin="miter" fill="none" stroke="#0000ff" d="M3.41763 0 .64348 1.04684 1.55879 0 .64348-1.04684Z"/>
<path transform="matrix(1.00002,0,0,-1.00005,30.53331,212.0958)" stroke-width=".3985" stroke-linecap="butt" stroke-miterlimit="10" stroke-linejoin="miter" fill="none" stroke="#0000ff" d="M126.17337 42.05779 129.15987 33.09836"/>
<path transform="matrix(.31621633,.9486874,.948659,-.3162258,159.23435,177.61147)" d="M3.41763 0 .64348 1.04684 1.55879 0 .64348-1.04684Z" fill="#0000ff"/>
<path transform="matrix(.31621633,.9486874,.948659,-.3162258,159.23435,177.61147)" stroke-width=".3985" stroke-linecap="butt" stroke-miterlimit="10" stroke-linejoin="miter" fill="none" stroke="#0000ff" d="M3.41763 0 .64348 1.04684 1.55879 0 .64348-1.04684Z"/>
<path transform="matrix(1.00002,0,0,-1.00005,30.53331,212.0958)" stroke-width=".3985" stroke-linecap="butt" stroke-miterlimit="10" stroke-linejoin="miter" fill="none" stroke="#0000ff" d="M126.17337 63.08669 128.82906 57.77542"/>
<path transform="matrix(.44717894,.8944246,.8943979,-.4471923,158.71242,153.01238)" d="M3.41763 0 .64348 1.04684 1.55879 0 .64348-1.04684Z" fill="#0000ff"/>
<path transform="matrix(.44717894,.8944246,.8943979,-.4471923,158.71242,153.01238)" stroke-width=".3985" stroke-linecap="butt" stroke-miterlimit="10" stroke-linejoin="miter" fill="none" stroke="#0000ff" d="M3.41763 0 .64348 1.04684 1.55879 0 .64348-1.04684Z"/>
<path transform="matrix(1.00002,0,0,-1.00005,30.53331,212.0958)" stroke-width=".3985" stroke-linecap="butt" stroke-miterlimit="10" stroke-linejoin="miter" fill="none" stroke="#0000ff" d="M126.17337 84.11559 128.17249 82.11647"/>
<path transform="matrix(.70711418,.7071353,.70711418,-.7071353,157.67653,128.94336)" d="M3.41763 0 .64348 1.04684 1.55879 0 .64348-1.04684Z" fill="#0000ff"/>
<path transform="matrix(.70711418,.7071353,.70711418,-.7071353,157.67653,128.94336)" stroke-width=".3985" stroke-linecap="butt" stroke-miterlimit="10" stroke-linejoin="miter" fill="none" stroke="#0000ff" d="M3.41763 0 .64348 1.04684 1.55879 0 .64348-1.04684Z"/>
<path transform="matrix(1.00002,0,0,-1.00005,30.53331,212.0958)" stroke-width=".3985" stroke-linecap="butt" stroke-miterlimit="10" stroke-linejoin="miter" fill="none" stroke="#0000ff" d="M126.17337 105.14447H127.43265"/>
<path transform="matrix(1.00002,0,0,-1.00005,156.5093,106.946079)" d="M3.41763 0 .64348 1.04684 1.55879 0 .64348-1.04684Z" fill="#0000ff"/>
<path transform="matrix(1.00002,0,0,-1.00005,156.5093,106.946079)" stroke-width=".3985" stroke-linecap="butt" stroke-miterlimit="10" stroke-linejoin="miter" fill="none" stroke="#0000ff" d="M3.41763 0 .64348 1.04684 1.55879 0 .64348-1.04684Z"/>
<path transform="matrix(1.00002,0,0,-1.00005,30.53331,212.0958)" stroke-width=".3985" stroke-linecap="butt" stroke-miterlimit="10" stroke-linejoin="miter" fill="none" stroke="#0000ff" d="M126.17337 126.17337 128.17249 128.17249"/>
<path transform="matrix(.70711418,-.7071353,-.70711418,-.7071353,157.67653,84.94878)" d="M3.41763 0 .64348 1.04684 1.55879 0 .64348-1.04684Z" fill="#0000ff"/>
<path transform="matrix(.70711418,-.7071353,-.70711418,-.7071353,157.67653,84.94878)" stroke-width=".3985" stroke-linecap="butt" stroke-miterlimit="10" stroke-linejoin="miter" fill="none" stroke="#0000ff" d="M3.41763 0 .64348 1.04684 1.55879 0 .64348-1.04684Z"/>
<path transform="matrix(1.00002,0,0,-1.00005,30.53331,212.0958)" stroke-width=".3985" stroke-linecap="butt" stroke-miterlimit="10" stroke-linejoin="miter" fill="none" stroke="#0000ff" d="M126.17337 147.20227 128.82906 152.51354"/>
<path transform="matrix(.44717894,-.8944246,-.8943979,-.4471923,158.71242,60.87976)" d="M3.41763 0 .64348 1.04684 1.55879 0 .64348-1.04684Z" fill="#0000ff"/>
<path transform="matrix(.44717894,-.8944246,-.8943979,-.4471923,158.71242,60.87976)" stroke-width=".3985" stroke-linecap="butt" stroke-miterlimit="10" stroke-linejoin="miter" fill="none" stroke="#0000ff" d="M3.41763 0 .64348 1.04684 1.55879 0 .64348-1.04684Z"/>
<path transform="matrix(1.00002,0,0,-1.00005,30.53331,212.0958)" stroke-width=".3985" stroke-linecap="butt" stroke-miterlimit="10" stroke-linejoin="miter" fill="none" stroke="#0000ff" d="M126.17337 168.23117 129.15987 177.19058"/>
<path transform="matrix(.31621633,-.9486874,-.948659,-.3162258,159.23435,36.280687)" d="M3.41763 0 .64348 1.04684 1.55879 0 .64348-1.04684Z" fill="#0000ff"/>
<path transform="matrix(.31621633,-.9486874,-.948659,-.3162258,159.23435,36.280687)" stroke-width=".3985" stroke-linecap="butt" stroke-miterlimit="10" stroke-linejoin="miter" fill="none" stroke="#0000ff" d="M3.41763 0 .64348 1.04684 1.55879 0 .64348-1.04684Z"/>
<path transform="matrix(1.00002,0,0,-1.00005,30.53331,212.0958)" stroke-width=".3985" stroke-linecap="butt" stroke-miterlimit="10" stroke-linejoin="miter" fill="none" stroke="#0000ff" d="M126.17337 189.26006 129.34606 201.95037"/>
<path transform="matrix(.24250487,-.97018846,-.9701594,-.24251212,159.5281,11.551025)" d="M3.41763 0 .64348 1.04684 1.55879 0 .64348-1.04684Z" fill="#0000ff"/>
<path transform="matrix(.24250487,-.97018846,-.9701594,-.24251212,159.5281,11.551025)" stroke-width=".3985" stroke-linecap="butt" stroke-miterlimit="10" stroke-linejoin="miter" fill="none" stroke="#0000ff" d="M3.41763 0 .64348 1.04684 1.55879 0 .64348-1.04684Z"/>
<path transform="matrix(1.00002,0,0,-1.00005,30.53331,212.0958)" stroke-width=".3985" stroke-linecap="butt" stroke-miterlimit="10" stroke-linejoin="miter" fill="none" stroke="#0000ff" d="M147.20227 21.02888 153.64315 8.14722"/>
<path transform="matrix(.44717894,.8944246,.8943979,-.4471923,183.52701,202.64304)" d="M3.41763 0 .64348 1.04684 1.55879 0 .64348-1.04684Z" fill="#0000ff"/>
<path transform="matrix(.44717894,.8944246,.8943979,-.4471923,183.52701,202.64304)" stroke-width=".3985" stroke-linecap="butt" stroke-miterlimit="10" stroke-linejoin="miter" fill="none" stroke="#0000ff" d="M3.41763 0 .64348 1.04684 1.55879 0 .64348-1.04684Z"/>
<path transform="matrix(1.00002,0,0,-1.00005,30.53331,212.0958)" stroke-width=".3985" stroke-linecap="butt" stroke-miterlimit="10" stroke-linejoin="miter" fill="none" stroke="#0000ff" d="M147.20227 42.05779 153.37166 32.80379"/>
<path transform="matrix(.5546711,.8320615,.8320367,-.55468776,183.09867,178.07625)" d="M3.41763 0 .64348 1.04684 1.55879 0 .64348-1.04684Z" fill="#0000ff"/>
<path transform="matrix(.5546711,.8320615,.8320367,-.55468776,183.09867,178.07625)" stroke-width=".3985" stroke-linecap="butt" stroke-miterlimit="10" stroke-linejoin="miter" fill="none" stroke="#0000ff" d="M3.41763 0 .64348 1.04684 1.55879 0 .64348-1.04684Z"/>
<path transform="matrix(1.00002,0,0,-1.00005,30.53331,212.0958)" stroke-width=".3985" stroke-linecap="butt" stroke-miterlimit="10" stroke-linejoin="miter" fill="none" stroke="#0000ff" d="M147.20227 63.08669 152.98657 57.30237"/>
<path transform="matrix(.70711418,.7071353,.70711418,-.7071353,182.49112,153.7587)" d="M3.41763 0 .64348 1.04684 1.55879 0 .64348-1.04684Z" fill="#0000ff"/>
<path transform="matrix(.70711418,.7071353,.70711418,-.7071353,182.49112,153.7587)" stroke-width=".3985" stroke-linecap="butt" stroke-miterlimit="10" stroke-linejoin="miter" fill="none" stroke="#0000ff" d="M3.41763 0 .64348 1.04684 1.55879 0 .64348-1.04684Z"/>
<path transform="matrix(1.00002,0,0,-1.00005,30.53331,212.0958)" stroke-width=".3985" stroke-linecap="butt" stroke-miterlimit="10" stroke-linejoin="miter" fill="none" stroke="#0000ff" d="M147.20227 84.11559 152.51354 81.4599"/>
<path transform="matrix(.8943979,.4471923,.44717894,-.8944246,181.74481,129.97928)" d="M3.41763 0 .64348 1.04684 1.55879 0 .64348-1.04684Z" fill="#0000ff"/>
<path transform="matrix(.8943979,.4471923,.44717894,-.8944246,181.74481,129.97928)" stroke-width=".3985" stroke-linecap="butt" stroke-miterlimit="10" stroke-linejoin="miter" fill="none" stroke="#0000ff" d="M3.41763 0 .64348 1.04684 1.55879 0 .64348-1.04684Z"/>
<path transform="matrix(1.00002,0,0,-1.00005,30.53331,212.0958)" stroke-width=".3985" stroke-linecap="butt" stroke-miterlimit="10" stroke-linejoin="miter" fill="none" stroke="#0000ff" d="M147.20227 105.14447H152.24674"/>
<path transform="matrix(1.00002,0,0,-1.00005,181.3239,106.946079)" d="M3.41763 0 .64348 1.04684 1.55879 0 .64348-1.04684Z" fill="#0000ff"/>
<path transform="matrix(1.00002,0,0,-1.00005,181.3239,106.946079)" stroke-width=".3985" stroke-linecap="butt" stroke-miterlimit="10" stroke-linejoin="miter" fill="none" stroke="#0000ff" d="M3.41763 0 .64348 1.04684 1.55879 0 .64348-1.04684Z"/>
<path transform="matrix(1.00002,0,0,-1.00005,30.53331,212.0958)" stroke-width=".3985" stroke-linecap="butt" stroke-miterlimit="10" stroke-linejoin="miter" fill="none" stroke="#0000ff" d="M147.20227 126.17337 152.51354 128.82906"/>
<path transform="matrix(.8943979,-.4471923,-.44717894,-.8944246,181.74481,83.91284)" d="M3.41763 0 .64348 1.04684 1.55879 0 .64348-1.04684Z" fill="#0000ff"/>
<path transform="matrix(.8943979,-.4471923,-.44717894,-.8944246,181.74481,83.91284)" stroke-width=".3985" stroke-linecap="butt" stroke-miterlimit="10" stroke-linejoin="miter" fill="none" stroke="#0000ff" d="M3.41763 0 .64348 1.04684 1.55879 0 .64348-1.04684Z"/>
<path transform="matrix(1.00002,0,0,-1.00005,30.53331,212.0958)" stroke-width=".3985" stroke-linecap="butt" stroke-miterlimit="10" stroke-linejoin="miter" fill="none" stroke="#0000ff" d="M147.20227 147.20227 152.98657 152.98657"/>
<path transform="matrix(.70711418,-.7071353,-.70711418,-.7071353,182.49112,60.13344)" d="M3.41763 0 .64348 1.04684 1.55879 0 .64348-1.04684Z" fill="#0000ff"/>
<path transform="matrix(.70711418,-.7071353,-.70711418,-.7071353,182.49112,60.13344)" stroke-width=".3985" stroke-linecap="butt" stroke-miterlimit="10" stroke-linejoin="miter" fill="none" stroke="#0000ff" d="M3.41763 0 .64348 1.04684 1.55879 0 .64348-1.04684Z"/>
<path transform="matrix(1.00002,0,0,-1.00005,30.53331,212.0958)" stroke-width=".3985" stroke-linecap="butt" stroke-miterlimit="10" stroke-linejoin="miter" fill="none" stroke="#0000ff" d="M147.20227 168.23117 153.37166 177.48516"/>
<path transform="matrix(.5546711,-.8320615,-.8320367,-.55468776,183.09867,35.815889)" d="M3.41763 0 .64348 1.04684 1.55879 0 .64348-1.04684Z" fill="#0000ff"/>
<path transform="matrix(.5546711,-.8320615,-.8320367,-.55468776,183.09867,35.815889)" stroke-width=".3985" stroke-linecap="butt" stroke-miterlimit="10" stroke-linejoin="miter" fill="none" stroke="#0000ff" d="M3.41763 0 .64348 1.04684 1.55879 0 .64348-1.04684Z"/>
<path transform="matrix(1.00002,0,0,-1.00005,30.53331,212.0958)" stroke-width=".3985" stroke-linecap="butt" stroke-miterlimit="10" stroke-linejoin="miter" fill="none" stroke="#0000ff" d="M147.20227 189.26006 153.64315 202.14174"/>
<path transform="matrix(.44717894,-.8944246,-.8943979,-.4471923,183.52701,11.2491)" d="M3.41763 0 .64348 1.04684 1.55879 0 .64348-1.04684Z" fill="#0000ff"/>
<path transform="matrix(.44717894,-.8944246,-.8943979,-.4471923,183.52701,11.2491)" stroke-width=".3985" stroke-linecap="butt" stroke-miterlimit="10" stroke-linejoin="miter" fill="none" stroke="#0000ff" d="M3.41763 0 .64348 1.04684 1.55879 0 .64348-1.04684Z"/>
<path transform="matrix(1.00002,0,0,-1.00005,30.53331,212.0958)" stroke-width=".3985" stroke-linecap="butt" stroke-miterlimit="10" stroke-linejoin="miter" fill="none" stroke="#0000ff" d="M168.23117 21.02888 178.07132 7.9088"/>
<path transform="matrix(.59997209,.80002996,.80000606,-.59999,207.73273,203.01921)" d="M3.41763 0 .64348 1.04684 1.55879 0 .64348-1.04684Z" fill="#0000ff"/>
<path transform="matrix(.59997209,.80002996,.80000606,-.59999,207.73273,203.01921)" stroke-width=".3985" stroke-linecap="butt" stroke-miterlimit="10" stroke-linejoin="miter" fill="none" stroke="#0000ff" d="M3.41763 0 .64348 1.04684 1.55879 0 .64348-1.04684Z"/>
<path transform="matrix(1.00002,0,0,-1.00005,30.53331,212.0958)" stroke-width=".3985" stroke-linecap="butt" stroke-miterlimit="10" stroke-linejoin="miter" fill="none" stroke="#0000ff" d="M168.23117 42.05779 177.80068 32.48828"/>
<path transform="matrix(.70711418,.7071353,.70711418,-.7071353,207.30573,178.57404)" d="M3.41763 0 .64348 1.04684 1.55879 0 .64348-1.04684Z" fill="#0000ff"/>
<path transform="matrix(.70711418,.7071353,.70711418,-.7071353,207.30573,178.57404)" stroke-width=".3985" stroke-linecap="butt" stroke-miterlimit="10" stroke-linejoin="miter" fill="none" stroke="#0000ff" d="M3.41763 0 .64348 1.04684 1.55879 0 .64348-1.04684Z"/>
<path transform="matrix(1.00002,0,0,-1.00005,30.53331,212.0958)" stroke-width=".3985" stroke-linecap="butt" stroke-miterlimit="10" stroke-linejoin="miter" fill="none" stroke="#0000ff" d="M168.23117 63.08669 177.48516 56.9173"/>
<path transform="matrix(.8320367,.55468776,.5546711,-.8320615,206.80794,154.36626)" d="M3.41763 0 .64348 1.04684 1.55879 0 .64348-1.04684Z" fill="#0000ff"/>
<path transform="matrix(.8320367,.55468776,.5546711,-.8320615,206.80794,154.36626)" stroke-width=".3985" stroke-linecap="butt" stroke-miterlimit="10" stroke-linejoin="miter" fill="none" stroke="#0000ff" d="M3.41763 0 .64348 1.04684 1.55879 0 .64348-1.04684Z"/>
<path transform="matrix(1.00002,0,0,-1.00005,30.53331,212.0958)" stroke-width=".3985" stroke-linecap="butt" stroke-miterlimit="10" stroke-linejoin="miter" fill="none" stroke="#0000ff" d="M168.23117 84.11559 177.19058 81.12909"/>
<path transform="matrix(.948659,.3162258,.31621633,-.9486874,206.34317,130.50122)" d="M3.41763 0 .64348 1.04684 1.55879 0 .64348-1.04684Z" fill="#0000ff"/>
<path transform="matrix(.948659,.3162258,.31621633,-.9486874,206.34317,130.50122)" stroke-width=".3985" stroke-linecap="butt" stroke-miterlimit="10" stroke-linejoin="miter" fill="none" stroke="#0000ff" d="M3.41763 0 .64348 1.04684 1.55879 0 .64348-1.04684Z"/>
<path transform="matrix(1.00002,0,0,-1.00005,30.53331,212.0958)" stroke-width=".3985" stroke-linecap="butt" stroke-miterlimit="10" stroke-linejoin="miter" fill="none" stroke="#0000ff" d="M168.23117 105.14447H177.06084"/>
<path transform="matrix(1.00002,0,0,-1.00005,206.13849,106.946079)" d="M3.41763 0 .64348 1.04684 1.55879 0 .64348-1.04684Z" fill="#0000ff"/>
<path transform="matrix(1.00002,0,0,-1.00005,206.13849,106.946079)" stroke-width=".3985" stroke-linecap="butt" stroke-miterlimit="10" stroke-linejoin="miter" fill="none" stroke="#0000ff" d="M3.41763 0 .64348 1.04684 1.55879 0 .64348-1.04684Z"/>
<path transform="matrix(1.00002,0,0,-1.00005,30.53331,212.0958)" stroke-width=".3985" stroke-linecap="butt" stroke-miterlimit="10" stroke-linejoin="miter" fill="none" stroke="#0000ff" d="M168.23117 126.17337 177.19058 129.15987"/>
<path transform="matrix(.948659,-.3162258,-.31621633,-.9486874,206.34317,83.390918)" d="M3.41763 0 .64348 1.04684 1.55879 0 .64348-1.04684Z" fill="#0000ff"/>
<path transform="matrix(.948659,-.3162258,-.31621633,-.9486874,206.34317,83.390918)" stroke-width=".3985" stroke-linecap="butt" stroke-miterlimit="10" stroke-linejoin="miter" fill="none" stroke="#0000ff" d="M3.41763 0 .64348 1.04684 1.55879 0 .64348-1.04684Z"/>
<path transform="matrix(1.00002,0,0,-1.00005,30.53331,212.0958)" stroke-width=".3985" stroke-linecap="butt" stroke-miterlimit="10" stroke-linejoin="miter" fill="none" stroke="#0000ff" d="M168.23117 147.20227 177.48516 153.37166"/>
<path transform="matrix(.8320367,-.55468776,-.5546711,-.8320615,206.80794,59.52588)" d="M3.41763 0 .64348 1.04684 1.55879 0 .64348-1.04684Z" fill="#0000ff"/>
<path transform="matrix(.8320367,-.55468776,-.5546711,-.8320615,206.80794,59.52588)" stroke-width=".3985" stroke-linecap="butt" stroke-miterlimit="10" stroke-linejoin="miter" fill="none" stroke="#0000ff" d="M3.41763 0 .64348 1.04684 1.55879 0 .64348-1.04684Z"/>
<path transform="matrix(1.00002,0,0,-1.00005,30.53331,212.0958)" stroke-width=".3985" stroke-linecap="butt" stroke-miterlimit="10" stroke-linejoin="miter" fill="none" stroke="#0000ff" d="M168.23117 168.23117 177.80068 177.80068"/>
<path transform="matrix(.70711418,-.7071353,-.70711418,-.7071353,207.30573,35.318086)" d="M3.41763 0 .64348 1.04684 1.55879 0 .64348-1.04684Z" fill="#0000ff"/>
<path transform="matrix(.70711418,-.7071353,-.70711418,-.7071353,207.30573,35.318086)" stroke-width=".3985" stroke-linecap="butt" stroke-miterlimit="10" stroke-linejoin="miter" fill="none" stroke="#0000ff" d="M3.41763 0 .64348 1.04684 1.55879 0 .64348-1.04684Z"/>
<path transform="matrix(1.00002,0,0,-1.00005,30.53331,212.0958)" stroke-width=".3985" stroke-linecap="butt" stroke-miterlimit="10" stroke-linejoin="miter" fill="none" stroke="#0000ff" d="M168.23117 189.26006 178.07132 202.38016"/>
<path transform="matrix(.59997209,-.80002996,-.80000606,-.59999,207.73273,10.87291)" d="M3.41763 0 .64348 1.04684 1.55879 0 .64348-1.04684Z" fill="#0000ff"/>
<path transform="matrix(.59997209,-.80002996,-.80000606,-.59999,207.73273,10.87291)" stroke-width=".3985" stroke-linecap="butt" stroke-miterlimit="10" stroke-linejoin="miter" fill="none" stroke="#0000ff" d="M3.41763 0 .64348 1.04684 1.55879 0 .64348-1.04684Z"/>
<path transform="matrix(1.00002,0,0,-1.00005,30.53331,212.0958)" stroke-width=".3985" stroke-linecap="butt" stroke-miterlimit="10" stroke-linejoin="miter" fill="none" stroke="#0000ff" d="M189.26006 21.02888 202.61478 7.67418"/>
<path transform="matrix(.70711418,.7071353,.70711418,-.7071353,232.12032,203.38938)" d="M3.41763 0 .64348 1.04684 1.55879 0 .64348-1.04684Z" fill="#0000ff"/>
<path transform="matrix(.70711418,.7071353,.70711418,-.7071353,232.12032,203.38938)" stroke-width=".3985" stroke-linecap="butt" stroke-miterlimit="10" stroke-linejoin="miter" fill="none" stroke="#0000ff" d="M3.41763 0 .64348 1.04684 1.55879 0 .64348-1.04684Z"/>
<path transform="matrix(1.00002,0,0,-1.00005,30.53331,212.0958)" stroke-width=".3985" stroke-linecap="butt" stroke-miterlimit="10" stroke-linejoin="miter" fill="none" stroke="#0000ff" d="M189.26006 42.05779 202.38016 32.21764"/>
<path transform="matrix(.80000606,.59999,.59997209,-.80002996,231.75017,179.00104)" d="M3.41763 0 .64348 1.04684 1.55879 0 .64348-1.04684Z" fill="#0000ff"/>
<path transform="matrix(.80000606,.59999,.59997209,-.80002996,231.75017,179.00104)" stroke-width=".3985" stroke-linecap="butt" stroke-miterlimit="10" stroke-linejoin="miter" fill="none" stroke="#0000ff" d="M3.41763 0 .64348 1.04684 1.55879 0 .64348-1.04684Z"/>
<path transform="matrix(1.00002,0,0,-1.00005,30.53331,212.0958)" stroke-width=".3985" stroke-linecap="butt" stroke-miterlimit="10" stroke-linejoin="miter" fill="none" stroke="#0000ff" d="M189.26006 63.08669 202.14174 56.6458"/>
<path transform="matrix(.8943979,.4471923,.44717894,-.8944246,231.37401,154.79462)" d="M3.41763 0 .64348 1.04684 1.55879 0 .64348-1.04684Z" fill="#0000ff"/>
<path transform="matrix(.8943979,.4471923,.44717894,-.8944246,231.37401,154.79462)" stroke-width=".3985" stroke-linecap="butt" stroke-miterlimit="10" stroke-linejoin="miter" fill="none" stroke="#0000ff" d="M3.41763 0 .64348 1.04684 1.55879 0 .64348-1.04684Z"/>
<path transform="matrix(1.00002,0,0,-1.00005,30.53331,212.0958)" stroke-width=".3985" stroke-linecap="butt" stroke-miterlimit="10" stroke-linejoin="miter" fill="none" stroke="#0000ff" d="M189.26006 84.11559 201.95037 80.9429"/>
<path transform="matrix(.9701594,.24251212,.24250487,-.97018846,231.07209,130.795)" d="M3.41763 0 .64348 1.04684 1.55879 0 .64348-1.04684Z" fill="#0000ff"/>
<path transform="matrix(.9701594,.24251212,.24250487,-.97018846,231.07209,130.795)" stroke-width=".3985" stroke-linecap="butt" stroke-miterlimit="10" stroke-linejoin="miter" fill="none" stroke="#0000ff" d="M3.41763 0 .64348 1.04684 1.55879 0 .64348-1.04684Z"/>
<path transform="matrix(1.00002,0,0,-1.00005,30.53331,212.0958)" stroke-width=".3985" stroke-linecap="butt" stroke-miterlimit="10" stroke-linejoin="miter" fill="none" stroke="#0000ff" d="M189.26006 105.14447H201.87494"/>
<path transform="matrix(1.00002,0,0,-1.00005,230.95308,106.946079)" d="M3.41763 0 .64348 1.04684 1.55879 0 .64348-1.04684Z" fill="#0000ff"/>
<path transform="matrix(1.00002,0,0,-1.00005,230.95308,106.946079)" stroke-width=".3985" stroke-linecap="butt" stroke-miterlimit="10" stroke-linejoin="miter" fill="none" stroke="#0000ff" d="M3.41763 0 .64348 1.04684 1.55879 0 .64348-1.04684Z"/>
<path transform="matrix(1.00002,0,0,-1.00005,30.53331,212.0958)" stroke-width=".3985" stroke-linecap="butt" stroke-miterlimit="10" stroke-linejoin="miter" fill="none" stroke="#0000ff" d="M189.26006 126.17337 201.95037 129.34606"/>
<path transform="matrix(.9701594,-.24251212,-.24250487,-.97018846,231.07209,83.09714)" d="M3.41763 0 .64348 1.04684 1.55879 0 .64348-1.04684Z" fill="#0000ff"/>
<path transform="matrix(.9701594,-.24251212,-.24250487,-.97018846,231.07209,83.09714)" stroke-width=".3985" stroke-linecap="butt" stroke-miterlimit="10" stroke-linejoin="miter" fill="none" stroke="#0000ff" d="M3.41763 0 .64348 1.04684 1.55879 0 .64348-1.04684Z"/>
<path transform="matrix(1.00002,0,0,-1.00005,30.53331,212.0958)" stroke-width=".3985" stroke-linecap="butt" stroke-miterlimit="10" stroke-linejoin="miter" fill="none" stroke="#0000ff" d="M189.26006 147.20227 202.14174 153.64315"/>
<path transform="matrix(.8943979,-.4471923,-.44717894,-.8944246,231.37401,59.09752)" d="M3.41763 0 .64348 1.04684 1.55879 0 .64348-1.04684Z" fill="#0000ff"/>
<path transform="matrix(.8943979,-.4471923,-.44717894,-.8944246,231.37401,59.09752)" stroke-width=".3985" stroke-linecap="butt" stroke-miterlimit="10" stroke-linejoin="miter" fill="none" stroke="#0000ff" d="M3.41763 0 .64348 1.04684 1.55879 0 .64348-1.04684Z"/>
<path transform="matrix(1.00002,0,0,-1.00005,30.53331,212.0958)" stroke-width=".3985" stroke-linecap="butt" stroke-miterlimit="10" stroke-linejoin="miter" fill="none" stroke="#0000ff" d="M189.26006 168.23117 202.38016 178.07132"/>
<path transform="matrix(.80000606,-.59999,-.59997209,-.80002996,231.75017,34.891084)" d="M3.41763 0 .64348 1.04684 1.55879 0 .64348-1.04684Z" fill="#0000ff"/>
<path transform="matrix(.80000606,-.59999,-.59997209,-.80002996,231.75017,34.891084)" stroke-width=".3985" stroke-linecap="butt" stroke-miterlimit="10" stroke-linejoin="miter" fill="none" stroke="#0000ff" d="M3.41763 0 .64348 1.04684 1.55879 0 .64348-1.04684Z"/>
<path transform="matrix(1.00002,0,0,-1.00005,30.53331,212.0958)" stroke-width=".3985" stroke-linecap="butt" stroke-miterlimit="10" stroke-linejoin="miter" fill="none" stroke="#0000ff" d="M189.26006 189.26006 202.61478 202.61478"/>
<path transform="matrix(.70711418,-.7071353,-.70711418,-.7071353,232.12032,10.502762)" d="M3.41763 0 .64348 1.04684 1.55879 0 .64348-1.04684Z" fill="#0000ff"/>
<path transform="matrix(.70711418,-.7071353,-.70711418,-.7071353,232.12032,10.502762)" stroke-width=".3985" stroke-linecap="butt" stroke-miterlimit="10" stroke-linejoin="miter" fill="none" stroke="#0000ff" d="M3.41763 0 .64348 1.04684 1.55879 0 .64348-1.04684Z"/>
<path transform="matrix(1.00002,0,0,-1.00005,30.53331,212.0958)" stroke-width=".3985" stroke-linecap="butt" stroke-miterlimit="10" stroke-linejoin="miter" fill="none" stroke="#0000ff" d=""/>
</g>
<path transform="matrix(1.00002,0,0,-1.00005,30.53331,212.0958)" d="M106.34001 105.14447C106.34001 105.80475 105.80475 106.34001 105.14447 106.34001 104.4842 106.34001 103.94894 105.80475 103.94894 105.14447 103.94894 104.4842 104.4842 103.94894 105.14447 103.94894 105.80475 103.94894 106.34001 104.4842 106.34001 105.14447ZM105.14447 105.14447" fill="#ff0000"/>
<path transform="matrix(1.00002,0,0,-1.00005,30.53331,212.0958)" stroke-width=".3985" stroke-linecap="butt" stroke-miterlimit="10" stroke-linejoin="miter" fill="none" stroke="#ff0000" d="M106.34001 105.14447C106.34001 105.80475 105.80475 106.34001 105.14447 106.34001 104.4842 106.34001 103.94894 105.80475 103.94894 105.14447 103.94894 104.4842 104.4842 103.94894 105.14447 103.94894 105.80475 103.94894 106.34001 104.4842 106.34001 105.14447ZM105.14447 105.14447"/>
<path transform="matrix(1.00002,0,0,-1.00005,30.53331,212.0958)" stroke-width=".3985" stroke-linecap="butt" stroke-miterlimit="10" stroke-linejoin="miter" fill="none" stroke="#ff0000" d=""/>
<use data-text="x" xlink:href="#font_4_1" transform="matrix(9.962799,0,0,-9.963098,132.83237,233.99689)"/>
<use data-text="y" xlink:href="#font_4_2" transform="matrix(0,-9.963098,-9.962799,-0,5.5058138,109.56665)"/>
</svg>
