<svg xmlns="http://www.w3.org/2000/svg" xmlns:xlink="http://www.w3.org/1999/xlink" xmlns:inkscape="http://www.inkscape.org/namespaces/inkscape" version="1.1" width="215" height="105" viewBox="0 0 215 105">
<defs>
<path id="font_1_1" d="M.6439972 .6795349H.038986207V.63253787H.14698792V.04699707H.038986207V0C.07699585 .0029907227 .17799378 .0029907227 .22200012 .0029907227 .2709961 .0029907227 .37998963 .0029907227 .42399598 0V.04699707H.2889862V.31640626H.33898927C.43499757 .31640626 .44400025 .27349855 .44400025 .19966126H.4909973V.4804535H.44400025C.44400025 .40641786 .43598939 .36340333 .33898927 .36340333H.2889862V.63253787H.42900086C.58999636 .63253787 .61299136 .5554962 .6279907 .4384308H.6749878L.6439972 .6795349Z"/>
<path id="font_2_1" d="M.15899658 .71398928C.15899658 .7319946 .15899658 .75 .13899231 .75 .11898804 .75 .11898804 .7319946 .11898804 .71398928V-.21400452C.11898804-.23200989 .11898804-.25 .13899231-.25 .15899658-.25 .15899658-.23200989 .15899658-.21400452V.71398928Z"/>
<path id="font_3_3" d="M.116989139 .21801758C.116989139 .38093568 .19898987 .42323304 .2519989 .42323304 .26098634 .42323304 .32398988 .42222596 .35899354 .38594056 .31799317 .38293458 .31199647 .3529358 .31199647 .3399353 .31199647 .31393434 .32998658 .2939453 .35798646 .2939453 .38398744 .2939453 .4039917 .3109436 .4039917 .34094239 .4039917 .40911866 .32798768 .4482422 .25099183 .4482422 .12599182 .4482422 .033996583 .3399353 .033996583 .21601868 .033996583 .08816528 .1329956-.0107421879 .24899292-.0107421879 .3829956-.0107421879 .4149933 .10914612 .4149933 .119140628 .4149933 .12911988 .40499879 .12911988 .4019928 .12911988 .3929901 .12911988 .3909912 .12512207 .3889923 .119140628 .3600006 .026229859 .29499818 .014251709 .2579956 .014251709 .20498657 .014251709 .116989139 .0572052 .116989139 .21801758Z"/>
<path id="font_3_4" d="M.47099305 .21424866C.47099305 .34223939 .37098695 .4482422 .25 .4482422 .125 .4482422 .027999878 .3392334 .027999878 .21424866 .027999878 .085250858 .13198853-.0107421879 .24899292-.0107421879 .36999513-.0107421879 .47099305 .087249759 .47099305 .21424866M.25 .014251709C.20698548 .014251709 .16299439 .035247804 .13598633 .08125305 .11099243 .12524414 .11099243 .18624878 .11099243 .22224427 .11099243 .26124574 .11099243 .31523133 .1349945 .35923768 .1619873 .40522767 .20899964 .426239 .24899292 .426239 .29299928 .426239 .33599855 .40423585 .3619995 .36123658 .3880005 .3182373 .3880005 .26023866 .3880005 .22224427 .3880005 .18624878 .3880005 .13224793 .3659973 .08824158 .34399415 .04324341 .2999878 .014251709 .25 .014251709Z"/>
<path id="font_3_5" d="M.20799256 .19424439C.22999573 .19024658 .31199647 .17424011 .31199647 .102249149 .31199647 .051254274 .2769928 .011245728 .19898987 .011245728 .114990238 .011245728 .07899475 .06825256 .05999756 .15324402 .056991579 .1662445 .055999757 .17024231 .04598999 .17024231 .032989503 .17024231 .032989503 .16323853 .032989503 .14524842V.013244629C.032989503-.003753662 .032989503-.0107421879 .04399109-.0107421879 .04899597-.0107421879 .049987794-.009750366 .068984989 .009246826 .070999149 .011245728 .070999149 .013244629 .08898926 .03224182 .1329956-.009750366 .17799378-.0107421879 .19898987-.0107421879 .31399537-.0107421879 .3600006 .056243898 .3600006 .12825012 .3600006 .1812439 .32998658 .21124268 .31799317 .22323609 .2849884 .25523377 .24598694 .26324464 .20399475 .27124024 .147995 .28224183 .08099365 .2952423 .08099365 .35324098 .08099365 .38822938 .10699463 .42922975 .19299317 .42922975 .30299378 .42922975 .30799867 .3392334 .30999757 .3082428 .31098939 .2992401 .31999208 .2992401 .32199098 .2992401 .33499146 .2992401 .33499146 .304245 .33499146 .3232422V.4242401C.33499146 .4412384 .33499146 .4482422 .32398988 .4482422 .31900025 .4482422 .31698609 .4482422 .3039856 .43623353 .30099488 .43223573 .29100038 .42323304 .2869873 .42022706 .24899292 .4482422 .20799256 .4482422 .19299317 .4482422 .070999149 .4482422 .032989503 .38124085 .032989503 .3252411 .032989503 .29023744 .04899597 .26223756 .07598877 .24023438 .10798645 .21424866 .13598633 .2082367 .20799256 .19424439Z"/>
<path id="font_3_1" d="M.33099366-.2400055C.33099366-.23701477 .33099366-.23500061 .31399537-.21800232 .18899536-.0920105 .15699768 .09700012 .15699768 .25 .15699768 .42399598 .19499207 .59799197 .31799317 .72299197 .33099366 .73498538 .33099366 .7369995 .33099366 .73999026 .33099366 .746994 .32699586 .75 .32099916 .75 .31098939 .75 .22099304 .6819916 .1619873 .5549927 .11099243 .44499208 .09899902 .33399964 .09899902 .25 .09899902 .17199707 .10998535 .050994874 .16499329-.06201172 .22499085-.18501282 .31098939-.25 .32099916-.25 .32699586-.25 .33099366-.24700928 .33099366-.2400055Z"/>
<path id="font_4_1" d="M.47698976 .23631287C.47698976 .39337159 .38398744 .4423828 .30999757 .4423828 .17298889 .4423828 .040985109 .29933167 .040985109 .15829468 .040985109 .06526184 .100997928-.0107421879 .20298767-.0107421879 .2659912-.0107421879 .33799745 .012252808 .4139862 .073272708 .4269867 .020248414 .45999146-.0107421879 .5049896-.0107421879 .55799868-.0107421879 .58898928 .044265748 .58898928 .060272218 .58898928 .06726074 .58299258 .07026672 .57699587 .07026672 .56999209 .07026672 .5669861 .06726074 .56399539 .060272218 .54599 .011245728 .5099945 .011245728 .5079956 .011245728 .47698976 .011245728 .47698976 .089279178 .47698976 .11328125 .47698976 .1342926 .47698976 .1362915 .4869995 .14828491 .58099368 .2663269 .60198977 .38235475 .60198977 .38336183 .60198977 .38536073 .6009979 .39337159 .58999636 .39337159 .5799866 .39337159 .5799866 .3903656 .57499697 .37236024 .5569916 .30934144 .5239868 .23332215 .47698976 .17430115V.23631287M.4099884 .09927368C.32199098 .022247315 .24499512 .011245728 .20498657 .011245728 .14498902 .011245728 .114990238 .056259157 .114990238 .120285037 .114990238 .16929627 .14099121 .2773285 .17298889 .32833863 .21998596 .4013672 .27398683 .42037965 .30899049 .42037965 .4079895 .42037965 .4079895 .28933717 .4079895 .21130371 .4079895 .17430115 .4079895 .11628723 .4099884 .09927368Z"/>
<path id="font_3_2" d="M.2889862 .25C.2889862 .32798768 .27799989 .44898988 .22299195 .56199648 .16299439 .68499758 .07699585 .75 .066986087 .75 .06098938 .75 .056991579 .74598696 .056991579 .73999026 .056991579 .7369995 .056991579 .73498538 .07598877 .71699526 .17399597 .6179962 .23098755 .45899964 .23098755 .25 .23098755 .07899475 .19400025-.09700012 .069992069-.2230072 .056991579-.23500061 .056991579-.23701477 .056991579-.2400055 .056991579-.2460022 .06098938-.25 .066986087-.25 .07699585-.25 .16699219-.18200684 .22599793-.055007936 .2769928 .054992677 .2889862 .16600037 .2889862 .25Z"/>
<path id="font_1_2" d="M.22399903 .4501953 .049987794 .44218446V.39518739C.10899353 .39518739 .115997318 .39518739 .115997318 .35617066V.04699707H.04699707V0C.07798767 .0009918213 .1269989 .0029907227 .16899109 .0029907227 .19898987 .0029907227 .25 .0009918213 .28599549 0V.04699707H.22399903V.4501953M.23399353 .6173096C.23399353 .66130068 .19799805 .6953125 .1559906 .6953125 .11299133 .6953125 .07798767 .66030886 .07798767 .6173096 .07798767 .5743103 .11299133 .53930667 .1559906 .53930667 .19799805 .53930667 .23399353 .5733032 .23399353 .6173096Z"/>
<path id="font_4_2" d="M.2639923 .4370575C.13899231 .40707398 .041992189 .27713014 .041992189 .15620423 .041992189 .0602417 .10598755-.01171875 .19999695-.01171875 .31698609-.01171875 .3999939 .14520264 .3999939 .28312684 .3999939 .37408448 .3600006 .424057 .32598878 .46903993 .2899933 .51400759 .23098755 .588974 .23098755 .6329498 .23098755 .65493777 .25099183 .67892459 .28599549 .67892459 .31599427 .67892459 .33599855 .66593936 .35699464 .651947 .3769989 .6399536 .39698792 .6269531 .4119873 .6269531 .43699647 .6269531 .45199586 .65093997 .45199586 .66693118 .45199586 .6889343 .43598939 .69192507 .3999939 .6999359 .34799195 .7109375 .33399964 .7109375 .31799317 .7109375 .23999024 .7109375 .20399475 .66793826 .20399475 .60795596 .20399475 .5539856 .23298645 .49801637 .2639923 .4370575M.27598573 .41506959C.30099488 .3690796 .33099366 .31510926 .33099366 .2431488 .33099366 .17718506 .29299928 .010269165 .19999695 .010269165 .14498902 .010269165 .10398865 .052246095 .10398865 .1282196 .10398865 .19117737 .14099121 .37908937 .27598573 .41506959Z"/>
<path id="font_4_3" d="M.33399964 .30233766C.33999635 .32835389 .36299134 .42037965 .43299867 .42037965 .43798829 .42037965 .46199037 .42037965 .48298646 .40734864 .45498658 .402359 .43499757 .37734986 .43499757 .35334779 .43499757 .33735658 .44599916 .31835938 .47299195 .31835938 .49499513 .31835938 .5269928 .3363495 .5269928 .37635804 .5269928 .42837525 .46798707 .4423828 .43399049 .4423828 .37599183 .4423828 .34098817 .38935853 .32899476 .36634828 .3039856 .43237306 .25 .4423828 .22099304 .4423828 .116989139 .4423828 .05999756 .3133545 .05999756 .28834535 .05999756 .27833558 .069992069 .27833558 .07199097 .27833558 .07998657 .27833558 .08299255 .28033448 .084991458 .28933717 .11898804 .39535523 .18499756 .42037965 .21899414 .42037965 .23799134 .42037965 .272995 .4113617 .272995 .35334779 .272995 .32235719 .2559967 .25532533 .21899414 .11528015 .20298767 .053268434 .16799927 .011245728 .12399292 .011245728 .117996219 .011245728 .09498596 .011245728 .07398987 .024276734 .09899902 .029266358 .12098694 .05027771 .12098694 .07827759 .12098694 .105270389 .09899902 .11328125 .083999637 .11328125 .053985597 .11328125 .0289917 .08728027 .0289917 .055267335 .0289917 .009246826 .07899475-.0107421879 .12298584-.0107421879 .18899536-.0107421879 .22499085 .059280397 .22799683 .0652771 .23999024 .028274537 .27598573-.0107421879 .33599855-.0107421879 .43899537-.0107421879 .49598695 .118270877 .49598695 .14328003 .49598695 .1532898 .4869995 .1532898 .48399354 .1532898 .47499085 .1532898 .47299195 .14929199 .47099305 .14228821 .43798829 .03527832 .36999513 .011245728 .33799745 .011245728 .29899598 .011245728 .2829895 .043273927 .2829895 .07727051 .2829895 .09927368 .2889862 .121276859 .2999878 .16529846L.33399964 .30233766Z"/>
</defs>
<path transform="matrix(1.00005,0,0,-1.00005,16.687928,71.38797)" stroke-width=".3985" stroke-linecap="butt" stroke-miterlimit="10" stroke-linejoin="miter" fill="none" stroke="#000000" d="M-15.5908 0H192.57367"/>
<path transform="matrix(1.00005,0,0,-1.00005,207.16434,71.38797)" d="M5.41019 0 .64343 1.79405 2.20638 0 .64343-1.79405Z"/>
<path transform="matrix(1.00005,0,0,-1.00005,207.16434,71.38797)" stroke-width=".3985" stroke-linecap="butt" stroke-miterlimit="10" stroke-linejoin="miter" fill="none" stroke="#000000" d="M5.41019 0 .64343 1.79405 2.20638 0 .64343-1.79405Z"/>
<path transform="matrix(1.00005,0,0,-1.00005,16.687928,71.38797)" d="M9.35457 0V18.70915H24.94539V0ZM24.94539 18.70915" fill="#e5e6e5"/>
<path transform="matrix(1.00005,0,0,-1.00005,16.687928,71.38797)" stroke-width=".79701" stroke-linecap="butt" stroke-miterlimit="10" stroke-linejoin="miter" fill="none" stroke="#000000" d="M9.35457 0V18.70915H24.94539V0ZM24.94539 18.70915"/>
<path transform="matrix(1.00005,0,0,-1.00005,16.687928,71.38797)" d="M152.78993 0V18.70915H168.38076V0ZM168.38076 18.70915" fill="#f5f5f5"/>
<path transform="matrix(1.00005,0,0,-1.00005,16.687928,71.38797)" stroke-width=".3985" stroke-linecap="butt" stroke-miterlimit="10" stroke-linejoin="miter" fill="none" stroke="#b2b3b2" d="M152.78993 0V18.70915H168.38076V0ZM168.38076 18.70915"/>
<path transform="matrix(1.00005,0,0,-1.00005,16.687928,71.38797)" stroke-width="1.19553" stroke-linecap="butt" stroke-miterlimit="10" stroke-linejoin="miter" fill="none" stroke="#ff0000" d="M17.15 18.70915 50.90092 58.93155"/>
<path transform="matrix(.64281216,-.76605829,-.76605829,-.64281216,66.07567,14.259815)" d="M4.54123 0 1.62877 1.10869 2.61012 0 1.62877-1.10869Z" fill="#ff0000"/>
<path transform="matrix(.64281216,-.76605829,-.76605829,-.64281216,66.07567,14.259815)" stroke-width="1.00871" stroke-linecap="butt" stroke-miterlimit="10" stroke-linejoin="miter" fill="none" stroke="#ff0000" d="M4.54123 0 1.62877 1.10869 2.61012 0 1.62877-1.10869Z"/>
<use data-text="F" xlink:href="#font_1_1" transform="matrix(9.963098,0,0,-9.963098,71.84368,7.7547914)" fill="#ff0000"/>
<path transform="matrix(1.00005,0,0,-1.00005,16.687928,71.38797)" stroke-width=".79701" stroke-linecap="butt" stroke-miterlimit="10" stroke-linejoin="miter" fill="none" stroke="#0000ff" d="M17.15 18.70915H49.61397"/>
<path transform="matrix(1.00005,0,0,-1.00005,64.03346,52.677888)" d="M4.84268 0 1.28693 1.34647 2.47006 0 1.28693-1.34647Z" fill="#0000ff"/>
<path transform="matrix(1.00005,0,0,-1.00005,64.03346,52.677888)" stroke-width=".79701" stroke-linecap="butt" stroke-miterlimit="10" stroke-linejoin="miter" fill="none" stroke="#0000ff" d="M4.84268 0 1.28693 1.34647 2.47006 0 1.28693-1.34647Z"/>
<use data-text="|" xlink:href="#font_2_1" transform="matrix(9.963098,0,0,-9.963098,72.734729,62.873544)" fill="#0000ff"/>
<use data-text="F" xlink:href="#font_1_1" transform="matrix(9.963098,0,0,-9.963098,75.50186,62.873544)" fill="#0000ff"/>
<use data-text="|" xlink:href="#font_2_1" transform="matrix(9.963098,0,0,-9.963098,82.71122,62.873544)" fill="#0000ff"/>
<use data-text="c" xlink:href="#font_3_3" transform="matrix(9.963098,0,0,-9.963098,87.13944,62.873544)" fill="#0000ff"/>
<use data-text="o" xlink:href="#font_3_4" transform="matrix(9.963098,0,0,-9.963098,91.56306,62.873544)" fill="#0000ff"/>
<use data-text="s" xlink:href="#font_3_5" transform="matrix(9.963098,0,0,-9.963098,96.54461,62.873544)" fill="#0000ff"/>
<use data-text="(" xlink:href="#font_3_1" transform="matrix(9.963098,0,0,-9.963098,100.47007,62.873544)" fill="#0000ff"/>
<use data-text="&#x03b1;" xlink:href="#font_4_1" transform="matrix(9.963098,0,0,-9.963098,104.35332,62.873544)" fill="#0000ff"/>
<use data-text=")" xlink:href="#font_3_2" transform="matrix(9.963098,0,0,-9.963098,110.76364,62.873544)" fill="#0000ff"/>
<use data-text="i" xlink:href="#font_1_2" transform="matrix(9.963098,0,0,-9.963098,116.29892,62.873544)" fill="#0000ff"/>
<path transform="matrix(1.00005,0,0,-1.00005,16.687928,71.38797)" stroke-width=".3985" stroke-linecap="butt" stroke-miterlimit="10" stroke-linejoin="miter" fill="none" stroke="#000000" d="M35.85869 18.70915C35.85869 24.23888 33.41156 29.48686 29.17561 33.04106"/>
<use data-text="&#x03b1;" xlink:href="#font_4_1" transform="matrix(9.963098,0,0,-9.963098,60.257104,44.53263)"/>
<path transform="matrix(1.00005,0,0,-1.00005,16.687928,71.38797)" d="M18.79387 9.35457C18.79387 10.26247 18.05789 10.99844 17.15 10.99844 16.24211 10.99844 15.50613 10.26247 15.50613 9.35457 15.50613 8.44669 16.24211 7.71071 17.15 7.71071 18.05789 7.71071 18.79387 8.44669 18.79387 9.35457ZM17.15 9.35457"/>
<path transform="matrix(1.00005,0,0,-1.00005,16.687928,71.38797)" d="M162.22924 9.35457C162.22924 10.26247 161.49326 10.99844 160.58536 10.99844 159.67748 10.99844 158.9415 10.26247 158.9415 9.35457 158.9415 8.44669 159.67748 7.71071 160.58536 7.71071 161.49326 7.71071 162.22924 8.44669 162.22924 9.35457ZM160.58536 9.35457" fill="#b9b9b9"/>
<path transform="matrix(1.00005,0,0,-1.00005,16.687928,71.38797)" stroke-width=".3985" stroke-linecap="butt" stroke-dasharray="2.98883,1.99255" stroke-miterlimit="10" stroke-linejoin="miter" fill="none" stroke="#b2b3b2" d="M17.15 9.35457V-24.32164"/>
<path transform="matrix(1.00005,0,0,-1.00005,16.687928,71.38797)" stroke-width=".3985" stroke-linecap="butt" stroke-dasharray="2.98883,1.99255" stroke-miterlimit="10" stroke-linejoin="miter" fill="none" stroke="#b2b3b2" d="M160.58536 9.35457V-24.32164"/>
<path transform="matrix(1.00005,0,0,-1.00005,16.687928,71.38797)" stroke-width="1.19553" stroke-linecap="butt" stroke-dasharray="2.98883,1.99255" stroke-miterlimit="10" stroke-linejoin="miter" fill="none" stroke="#007300" d="M20.7697-19.33246H156.96567"/>
<path transform="matrix(-1.00005,-0,0,1.00005,39.816743,90.7214)" d="M4.54123 0 1.62877 1.10869 2.61012 0 1.62877-1.10869Z" fill="#007300"/>
<path transform="matrix(-1.00005,-0,0,1.00005,39.816743,90.7214)" stroke-width="1.00871" stroke-linecap="butt" stroke-miterlimit="10" stroke-linejoin="miter" fill="none" stroke="#007300" d="M4.54123 0 1.62877 1.10869 2.61012 0 1.62877-1.10869Z"/>
<path transform="matrix(1.00005,0,0,-1.00005,171.30335,90.7214)" d="M4.54123 0 1.62877 1.10869 2.61012 0 1.62877-1.10869Z" fill="#007300"/>
<path transform="matrix(1.00005,0,0,-1.00005,171.30335,90.7214)" stroke-width="1.00871" stroke-linecap="butt" stroke-miterlimit="10" stroke-linejoin="miter" fill="none" stroke="#007300" d="M4.54123 0 1.62877 1.10869 2.61012 0 1.62877-1.10869Z"/>
<use data-text="&#x03b4;" xlink:href="#font_4_2" transform="matrix(9.963098,0,0,-9.963098,100.3101,102.55553)" fill="#007300"/>
<use data-text="x" xlink:href="#font_4_3" transform="matrix(9.963098,0,0,-9.963098,105.10234,102.55553)" fill="#007300"/>
</svg>
