<svg xmlns="http://www.w3.org/2000/svg" id="prefigure-r2p-pi-shear-figure" width="218" height="218" viewBox="0 0 218 218">
  <defs>
    <clipPath id="prefigure-r2p-pi-shear-clipPath-0">
      <rect x="4.0" y="4.0" width="210.0" height="210.0"/>
    </clipPath>
    <clipPath id="prefigure-r2p-pi-shear-clipPath-1">
      <rect x="4.0" y="4.0" width="210.0" height="210.0"/>
    </clipPath>
    <marker id="prefigure-r2p-pi-shear-arrow-head-end-1_None_24_60-h555555" markerWidth="4.5" markerHeight="4.0" markerUnits="userSpaceOnUse" orient="auto-start-reverse" refX="3.3" refY="2.0">
      <path d="M 4.5 2.0L 0.0 4.0L 0.9 2.5L 0.9 1.5L 0.0 0.0Z" fill="#555555" stroke="none"/>
    </marker>
    <marker id="prefigure-r2p-pi-shear-arrow-head-end-1_None_24_60-h555555-outline" markerWidth="8.5" markerHeight="8.0" markerUnits="userSpaceOnUse" orient="auto-start-reverse" refX="5.3" refY="4.0">
      <path d="M 7.3 5.8 L 2.8 7.8 A 2 2 0 0 1 0.0 6.0 L 0.0 2.0 A 2 2 0 0 1 2.8 0.2 L 7.3 2.2 A 2 2 0 0 1 7.3 5.8 Z" fill="white" stroke="none"/>
    </marker>
    <marker id="prefigure-r2p-pi-shear-arrow-head-end-2_None_24_60-h3c6fbf" markerWidth="9.0" markerHeight="8.0" markerUnits="userSpaceOnUse" orient="auto-start-reverse" refX="6.5" refY="4.0">
      <path d="M 9.0 4.0L 0.0 8.0L 1.7 5.0L 1.7 3.0L 0.0 0.0Z" fill="#3c6fbf" stroke="none"/>
    </marker>
    <marker id="prefigure-r2p-pi-shear-arrow-head-end-2_None_24_60-h3c6fbf-outline" markerWidth="13.0" markerHeight="12.0" markerUnits="userSpaceOnUse" orient="auto-start-reverse" refX="8.5" refY="6.0">
      <path d="M 11.8 7.8 L 2.8 11.8 A 2 2 0 0 1 0.0 10.0 L 0.0 2.0 A 2 2 0 0 1 2.8 0.2 L 11.8 4.2 A 2 2 0 0 1 11.8 7.8 Z" fill="white" stroke="none"/>
    </marker>
  </defs>
  <g id="prefigure-r2p-pi-shear-axes" stroke="#555555" stroke-width="1">
    <line id="prefigure-r2p-pi-shear-line-0" x1="4.0" y1="109.0" x2="214.0" y2="109.0" stroke="#555555" stroke-width="1" marker-end="url(#prefigure-r2p-pi-shear-arrow-head-end-1_None_24_60-h555555)"/>
    <line id="prefigure-r2p-pi-shear-line-1" x1="109.0" y1="214.0" x2="109.0" y2="4.0" stroke="#555555" stroke-width="1" marker-end="url(#prefigure-r2p-pi-shear-arrow-head-end-1_None_24_60-h555555)"/>
  </g>
  <g id="prefigure-r2p-pi-shear-label-0" transform="translate(208.0,103.0) translate(-10.4,-8.2)">
    <g id="prefigure-r2p-pi-shear-g-0">
      <svg xmlns:xlink="http://www.w3.org/1999/xlink" style="vertical-align: -0.200px" width="10.352px" height="8.200px" role="img" focusable="false" viewBox="0 -442 572 453" x="0.0" y="0.0">
        <defs>
          <path id="prefigure-r2p-pi-shear-MJX-2-TEX-I-1D465" d="M52 289Q59 331 106 386T222 442Q257 442 286 424T329 379Q371 442 430 442Q467 442 494 420T522 361Q522 332 508 314T481 292T458 288Q439 288 427 299T415 328Q415 374 465 391Q454 404 425 404Q412 404 406 402Q368 386 350 336Q290 115 290 78Q290 50 306 38T341 26Q378 26 414 59T463 140Q466 150 469 151T485 153H489Q504 153 504 145Q504 144 502 134Q486 77 440 33T333 -11Q263 -11 227 52Q186 -10 133 -10H127Q78 -10 57 16T35 71Q35 103 54 123T99 143Q142 143 142 101Q142 81 130 66T107 46T94 41L91 40Q91 39 97 36T113 29T132 26Q168 26 194 71Q203 87 217 139T245 247T261 313Q266 340 266 352Q266 380 251 392T217 404Q177 404 142 372T93 290Q91 281 88 280T72 278H58Q52 284 52 289Z"/>
        </defs>
        <g stroke="currentColor" fill="currentColor" stroke-width="0" transform="scale(1,-1)">
          <g data-mml-node="math">
            <g data-mml-node="mi" data-semantic-type="identifier" data-semantic-role="latinletter" data-semantic-font="italic" data-semantic-annotation="clearspeak:simple" data-semantic-id="0" data-semantic-speech="x">
              <use data-c="1D465" xlink:href="#prefigure-r2p-pi-shear-MJX-2-TEX-I-1D465"/>
            </g>
          </g>
        </g>
      </svg>
    </g>
  </g>
  <g id="prefigure-r2p-pi-shear-label-1" transform="translate(115.0,10.0) translate(0.0,-0.0)">
    <g id="prefigure-r2p-pi-shear-g-1">
      <svg xmlns:xlink="http://www.w3.org/1999/xlink" style="vertical-align: -3.712px" width="8.872px" height="11.712px" role="img" focusable="false" viewBox="0 -442 490 647" x="0.0" y="0.0">
        <defs>
          <path id="prefigure-r2p-pi-shear-MJX-3-TEX-I-1D466" d="M21 287Q21 301 36 335T84 406T158 442Q199 442 224 419T250 355Q248 336 247 334Q247 331 231 288T198 191T182 105Q182 62 196 45T238 27Q261 27 281 38T312 61T339 94Q339 95 344 114T358 173T377 247Q415 397 419 404Q432 431 462 431Q475 431 483 424T494 412T496 403Q496 390 447 193T391 -23Q363 -106 294 -155T156 -205Q111 -205 77 -183T43 -117Q43 -95 50 -80T69 -58T89 -48T106 -45Q150 -45 150 -87Q150 -107 138 -122T115 -142T102 -147L99 -148Q101 -153 118 -160T152 -167H160Q177 -167 186 -165Q219 -156 247 -127T290 -65T313 -9T321 21L315 17Q309 13 296 6T270 -6Q250 -11 231 -11Q185 -11 150 11T104 82Q103 89 103 113Q103 170 138 262T173 379Q173 380 173 381Q173 390 173 393T169 400T158 404H154Q131 404 112 385T82 344T65 302T57 280Q55 278 41 278H27Q21 284 21 287Z"/>
        </defs>
        <g stroke="currentColor" fill="currentColor" stroke-width="0" transform="scale(1,-1)">
          <g data-mml-node="math">
            <g data-mml-node="mi" data-semantic-type="identifier" data-semantic-role="latinletter" data-semantic-font="italic" data-semantic-annotation="clearspeak:simple" data-semantic-id="0" data-semantic-speech="y">
              <use data-c="1D466" xlink:href="#prefigure-r2p-pi-shear-MJX-3-TEX-I-1D466"/>
            </g>
          </g>
        </g>
      </svg>
    </g>
  </g>
  <path id="prefigure-r2p-pi-shear-v1" stroke="#3c6fbf" stroke-width="2" fill="none" marker-end="url(#prefigure-r2p-pi-shear-arrow-head-end-2_None_24_60-h3c6fbf)" d="M 40.5 177.5 L 25.8 177.5"/>
  <circle id="prefigure-r2p-pi-shear-q1" cx="40.5" cy="177.5" r="2" stroke="#8b1a2b" stroke-width="2" fill="none"/>
  <path id="prefigure-r2p-pi-shear-v2" stroke="#3c6fbf" stroke-width="2" fill="none" marker-end="url(#prefigure-r2p-pi-shear-arrow-head-end-2_None_24_60-h3c6fbf)" d="M 40.5 154.7 L 27.8 154.7"/>
  <circle id="prefigure-r2p-pi-shear-q2" cx="40.5" cy="154.7" r="2" stroke="#8b1a2b" stroke-width="2" fill="none"/>
  <path id="prefigure-r2p-pi-shear-v3" stroke="#3c6fbf" stroke-width="2" fill="none" marker-end="url(#prefigure-r2p-pi-shear-arrow-head-end-2_None_24_60-h3c6fbf)" d="M 40.5 131.8 L 29.9 131.8"/>
  <circle id="prefigure-r2p-pi-shear-q3" cx="40.5" cy="131.8" r="2" stroke="#8b1a2b" stroke-width="2" fill="none"/>
  <path id="prefigure-r2p-pi-shear-v4" stroke="#3c6fbf" stroke-width="2" fill="none" marker-end="url(#prefigure-r2p-pi-shear-arrow-head-end-2_None_24_60-h3c6fbf)" d="M 40.5 86.2 L 51.2 86.2"/>
  <circle id="prefigure-r2p-pi-shear-q4" cx="40.5" cy="86.2" r="2" stroke="#8b1a2b" stroke-width="2" fill="none"/>
  <path id="prefigure-r2p-pi-shear-v5" stroke="#3c6fbf" stroke-width="2" fill="none" marker-end="url(#prefigure-r2p-pi-shear-arrow-head-end-2_None_24_60-h3c6fbf)" d="M 40.5 63.3 L 53.2 63.3"/>
  <circle id="prefigure-r2p-pi-shear-q5" cx="40.5" cy="63.3" r="2" stroke="#8b1a2b" stroke-width="2" fill="none"/>
  <path id="prefigure-r2p-pi-shear-v6" stroke="#3c6fbf" stroke-width="2" fill="none" marker-end="url(#prefigure-r2p-pi-shear-arrow-head-end-2_None_24_60-h3c6fbf)" d="M 40.5 40.5 L 55.3 40.5"/>
  <circle id="prefigure-r2p-pi-shear-q6" cx="40.5" cy="40.5" r="2" stroke="#8b1a2b" stroke-width="2" fill="none"/>
  <path id="prefigure-r2p-pi-shear-v7" stroke="#3c6fbf" stroke-width="2" fill="none" marker-end="url(#prefigure-r2p-pi-shear-arrow-head-end-2_None_24_60-h3c6fbf)" d="M 63.3 177.5 L 48.6 177.5"/>
  <circle id="prefigure-r2p-pi-shear-q7" cx="63.3" cy="177.5" r="2" stroke="#8b1a2b" stroke-width="2" fill="none"/>
  <path id="prefigure-r2p-pi-shear-v8" stroke="#3c6fbf" stroke-width="2" fill="none" marker-end="url(#prefigure-r2p-pi-shear-arrow-head-end-2_None_24_60-h3c6fbf)" d="M 63.3 154.7 L 50.6 154.7"/>
  <circle id="prefigure-r2p-pi-shear-q8" cx="63.3" cy="154.7" r="2" stroke="#8b1a2b" stroke-width="2" fill="none"/>
  <path id="prefigure-r2p-pi-shear-v9" stroke="#3c6fbf" stroke-width="2" fill="none" marker-end="url(#prefigure-r2p-pi-shear-arrow-head-end-2_None_24_60-h3c6fbf)" d="M 63.3 131.8 L 52.7 131.8"/>
  <circle id="prefigure-r2p-pi-shear-q9" cx="63.3" cy="131.8" r="2" stroke="#8b1a2b" stroke-width="2" fill="none"/>
  <path id="prefigure-r2p-pi-shear-v10" stroke="#3c6fbf" stroke-width="2" fill="none" marker-end="url(#prefigure-r2p-pi-shear-arrow-head-end-2_None_24_60-h3c6fbf)" d="M 63.3 86.2 L 74.0 86.2"/>
  <circle id="prefigure-r2p-pi-shear-q10" cx="63.3" cy="86.2" r="2" stroke="#8b1a2b" stroke-width="2" fill="none"/>
  <path id="prefigure-r2p-pi-shear-v11" stroke="#3c6fbf" stroke-width="2" fill="none" marker-end="url(#prefigure-r2p-pi-shear-arrow-head-end-2_None_24_60-h3c6fbf)" d="M 63.3 63.3 L 76.1 63.3"/>
  <circle id="prefigure-r2p-pi-shear-q11" cx="63.3" cy="63.3" r="2" stroke="#8b1a2b" stroke-width="2" fill="none"/>
  <path id="prefigure-r2p-pi-shear-v12" stroke="#3c6fbf" stroke-width="2" fill="none" marker-end="url(#prefigure-r2p-pi-shear-arrow-head-end-2_None_24_60-h3c6fbf)" d="M 63.3 40.5 L 78.1 40.5"/>
  <circle id="prefigure-r2p-pi-shear-q12" cx="63.3" cy="40.5" r="2" stroke="#8b1a2b" stroke-width="2" fill="none"/>
  <path id="prefigure-r2p-pi-shear-v13" stroke="#3c6fbf" stroke-width="2" fill="none" marker-end="url(#prefigure-r2p-pi-shear-arrow-head-end-2_None_24_60-h3c6fbf)" d="M 86.2 177.5 L 71.4 177.5"/>
  <circle id="prefigure-r2p-pi-shear-q13" cx="86.2" cy="177.5" r="2" stroke="#8b1a2b" stroke-width="2" fill="none"/>
  <path id="prefigure-r2p-pi-shear-v14" stroke="#3c6fbf" stroke-width="2" fill="none" marker-end="url(#prefigure-r2p-pi-shear-arrow-head-end-2_None_24_60-h3c6fbf)" d="M 86.2 154.7 L 73.5 154.7"/>
  <circle id="prefigure-r2p-pi-shear-q14" cx="86.2" cy="154.7" r="2" stroke="#8b1a2b" stroke-width="2" fill="none"/>
  <path id="prefigure-r2p-pi-shear-v15" stroke="#3c6fbf" stroke-width="2" fill="none" marker-end="url(#prefigure-r2p-pi-shear-arrow-head-end-2_None_24_60-h3c6fbf)" d="M 86.2 131.8 L 75.5 131.8"/>
  <circle id="prefigure-r2p-pi-shear-q15" cx="86.2" cy="131.8" r="2" stroke="#8b1a2b" stroke-width="2" fill="none"/>
  <path id="prefigure-r2p-pi-shear-v16" stroke="#3c6fbf" stroke-width="2" fill="none" marker-end="url(#prefigure-r2p-pi-shear-arrow-head-end-2_None_24_60-h3c6fbf)" d="M 86.2 86.2 L 96.8 86.2"/>
  <circle id="prefigure-r2p-pi-shear-q16" cx="86.2" cy="86.2" r="2" stroke="#8b1a2b" stroke-width="2" fill="none"/>
  <path id="prefigure-r2p-pi-shear-v17" stroke="#3c6fbf" stroke-width="2" fill="none" marker-end="url(#prefigure-r2p-pi-shear-arrow-head-end-2_None_24_60-h3c6fbf)" d="M 86.2 63.3 L 98.9 63.3"/>
  <circle id="prefigure-r2p-pi-shear-q17" cx="86.2" cy="63.3" r="2" stroke="#8b1a2b" stroke-width="2" fill="none"/>
  <path id="prefigure-r2p-pi-shear-v18" stroke="#3c6fbf" stroke-width="2" fill="none" marker-end="url(#prefigure-r2p-pi-shear-arrow-head-end-2_None_24_60-h3c6fbf)" d="M 86.2 40.5 L 100.9 40.5"/>
  <circle id="prefigure-r2p-pi-shear-q18" cx="86.2" cy="40.5" r="2" stroke="#8b1a2b" stroke-width="2" fill="none"/>
  <path id="prefigure-r2p-pi-shear-v19" stroke="#3c6fbf" stroke-width="2" fill="none" marker-end="url(#prefigure-r2p-pi-shear-arrow-head-end-2_None_24_60-h3c6fbf)" d="M 131.8 177.5 L 117.1 177.5"/>
  <circle id="prefigure-r2p-pi-shear-q19" cx="131.8" cy="177.5" r="2" stroke="#8b1a2b" stroke-width="2" fill="none"/>
  <path id="prefigure-r2p-pi-shear-v20" stroke="#3c6fbf" stroke-width="2" fill="none" marker-end="url(#prefigure-r2p-pi-shear-arrow-head-end-2_None_24_60-h3c6fbf)" d="M 131.8 154.7 L 119.1 154.7"/>
  <circle id="prefigure-r2p-pi-shear-q20" cx="131.8" cy="154.7" r="2" stroke="#8b1a2b" stroke-width="2" fill="none"/>
  <path id="prefigure-r2p-pi-shear-v21" stroke="#3c6fbf" stroke-width="2" fill="none" marker-end="url(#prefigure-r2p-pi-shear-arrow-head-end-2_None_24_60-h3c6fbf)" d="M 131.8 131.8 L 121.2 131.8"/>
  <circle id="prefigure-r2p-pi-shear-q21" cx="131.8" cy="131.8" r="2" stroke="#8b1a2b" stroke-width="2" fill="none"/>
  <path id="prefigure-r2p-pi-shear-v22" stroke="#3c6fbf" stroke-width="2" fill="none" marker-end="url(#prefigure-r2p-pi-shear-arrow-head-end-2_None_24_60-h3c6fbf)" d="M 131.8 86.2 L 142.5 86.2"/>
  <circle id="prefigure-r2p-pi-shear-q22" cx="131.8" cy="86.2" r="2" stroke="#8b1a2b" stroke-width="2" fill="none"/>
  <path id="prefigure-r2p-pi-shear-v23" stroke="#3c6fbf" stroke-width="2" fill="none" marker-end="url(#prefigure-r2p-pi-shear-arrow-head-end-2_None_24_60-h3c6fbf)" d="M 131.8 63.3 L 144.5 63.3"/>
  <circle id="prefigure-r2p-pi-shear-q23" cx="131.8" cy="63.3" r="2" stroke="#8b1a2b" stroke-width="2" fill="none"/>
  <path id="prefigure-r2p-pi-shear-v24" stroke="#3c6fbf" stroke-width="2" fill="none" marker-end="url(#prefigure-r2p-pi-shear-arrow-head-end-2_None_24_60-h3c6fbf)" d="M 131.8 40.5 L 146.6 40.5"/>
  <circle id="prefigure-r2p-pi-shear-q24" cx="131.8" cy="40.5" r="2" stroke="#8b1a2b" stroke-width="2" fill="none"/>
  <path id="prefigure-r2p-pi-shear-v25" stroke="#3c6fbf" stroke-width="2" fill="none" marker-end="url(#prefigure-r2p-pi-shear-arrow-head-end-2_None_24_60-h3c6fbf)" d="M 154.7 177.5 L 139.9 177.5"/>
  <circle id="prefigure-r2p-pi-shear-q25" cx="154.7" cy="177.5" r="2" stroke="#8b1a2b" stroke-width="2" fill="none"/>
  <path id="prefigure-r2p-pi-shear-v26" stroke="#3c6fbf" stroke-width="2" fill="none" marker-end="url(#prefigure-r2p-pi-shear-arrow-head-end-2_None_24_60-h3c6fbf)" d="M 154.7 154.7 L 141.9 154.7"/>
  <circle id="prefigure-r2p-pi-shear-q26" cx="154.7" cy="154.7" r="2" stroke="#8b1a2b" stroke-width="2" fill="none"/>
  <path id="prefigure-r2p-pi-shear-v27" stroke="#3c6fbf" stroke-width="2" fill="none" marker-end="url(#prefigure-r2p-pi-shear-arrow-head-end-2_None_24_60-h3c6fbf)" d="M 154.7 131.8 L 144.0 131.8"/>
  <circle id="prefigure-r2p-pi-shear-q27" cx="154.7" cy="131.8" r="2" stroke="#8b1a2b" stroke-width="2" fill="none"/>
  <path id="prefigure-r2p-pi-shear-v28" stroke="#3c6fbf" stroke-width="2" fill="none" marker-end="url(#prefigure-r2p-pi-shear-arrow-head-end-2_None_24_60-h3c6fbf)" d="M 154.7 86.2 L 165.3 86.2"/>
  <circle id="prefigure-r2p-pi-shear-q28" cx="154.7" cy="86.2" r="2" stroke="#8b1a2b" stroke-width="2" fill="none"/>
  <path id="prefigure-r2p-pi-shear-v29" stroke="#3c6fbf" stroke-width="2" fill="none" marker-end="url(#prefigure-r2p-pi-shear-arrow-head-end-2_None_24_60-h3c6fbf)" d="M 154.7 63.3 L 167.4 63.3"/>
  <circle id="prefigure-r2p-pi-shear-q29" cx="154.7" cy="63.3" r="2" stroke="#8b1a2b" stroke-width="2" fill="none"/>
  <path id="prefigure-r2p-pi-shear-v30" stroke="#3c6fbf" stroke-width="2" fill="none" marker-end="url(#prefigure-r2p-pi-shear-arrow-head-end-2_None_24_60-h3c6fbf)" d="M 154.7 40.5 L 169.4 40.5"/>
  <circle id="prefigure-r2p-pi-shear-q30" cx="154.7" cy="40.5" r="2" stroke="#8b1a2b" stroke-width="2" fill="none"/>
  <path id="prefigure-r2p-pi-shear-v31" stroke="#3c6fbf" stroke-width="2" fill="none" marker-end="url(#prefigure-r2p-pi-shear-arrow-head-end-2_None_24_60-h3c6fbf)" d="M 177.5 177.5 L 162.7 177.5"/>
  <circle id="prefigure-r2p-pi-shear-q31" cx="177.5" cy="177.5" r="2" stroke="#8b1a2b" stroke-width="2" fill="none"/>
  <path id="prefigure-r2p-pi-shear-v32" stroke="#3c6fbf" stroke-width="2" fill="none" marker-end="url(#prefigure-r2p-pi-shear-arrow-head-end-2_None_24_60-h3c6fbf)" d="M 177.5 154.7 L 164.8 154.7"/>
  <circle id="prefigure-r2p-pi-shear-q32" cx="177.5" cy="154.7" r="2" stroke="#8b1a2b" stroke-width="2" fill="none"/>
  <path id="prefigure-r2p-pi-shear-v33" stroke="#3c6fbf" stroke-width="2" fill="none" marker-end="url(#prefigure-r2p-pi-shear-arrow-head-end-2_None_24_60-h3c6fbf)" d="M 177.5 131.8 L 166.8 131.8"/>
  <circle id="prefigure-r2p-pi-shear-q33" cx="177.5" cy="131.8" r="2" stroke="#8b1a2b" stroke-width="2" fill="none"/>
  <path id="prefigure-r2p-pi-shear-v34" stroke="#3c6fbf" stroke-width="2" fill="none" marker-end="url(#prefigure-r2p-pi-shear-arrow-head-end-2_None_24_60-h3c6fbf)" d="M 177.5 86.2 L 188.1 86.2"/>
  <circle id="prefigure-r2p-pi-shear-q34" cx="177.5" cy="86.2" r="2" stroke="#8b1a2b" stroke-width="2" fill="none"/>
  <path id="prefigure-r2p-pi-shear-v35" stroke="#3c6fbf" stroke-width="2" fill="none" marker-end="url(#prefigure-r2p-pi-shear-arrow-head-end-2_None_24_60-h3c6fbf)" d="M 177.5 63.3 L 190.2 63.3"/>
  <circle id="prefigure-r2p-pi-shear-q35" cx="177.5" cy="63.3" r="2" stroke="#8b1a2b" stroke-width="2" fill="none"/>
  <path id="prefigure-r2p-pi-shear-v36" stroke="#3c6fbf" stroke-width="2" fill="none" marker-end="url(#prefigure-r2p-pi-shear-arrow-head-end-2_None_24_60-h3c6fbf)" d="M 177.5 40.5 L 192.2 40.5"/>
  <circle id="prefigure-r2p-pi-shear-q36" cx="177.5" cy="40.5" r="2" stroke="#8b1a2b" stroke-width="2" fill="none"/>
</svg>
